<svg width="281" height="55" viewBox="0 0 281 55" fill="none" xmlns="http://www.w3.org/2000/svg">
<path d="M273.669 9.35554C273.823 9.16295 274.035 9.06665 274.304 9.06665C274.805 9.06665 275.056 9.29776 275.056 9.75998C275.056 9.83702 275.036 9.91406 274.998 9.99109C274.959 10.0681 274.921 10.1452 274.882 10.2222C274.227 11.3007 273.496 12.6489 272.687 14.2667C271.878 15.8844 271.069 17.6563 270.26 19.5822C269.49 21.4696 268.719 23.4341 267.949 25.4756C267.217 27.517 266.543 29.52 265.927 31.4844C265.349 33.4489 264.887 35.2978 264.54 37.0311C264.193 38.7259 264.02 40.1896 264.02 41.4222C264.02 41.8074 264.039 42.2119 264.078 42.6356C264.155 43.0978 264.27 43.5022 264.424 43.8489C264.578 44.2341 264.81 44.5422 265.118 44.7733C265.426 45.0045 265.83 45.12 266.331 45.12C267.14 45.12 267.987 44.8504 268.873 44.3111C269.798 43.8104 270.703 43.1748 271.589 42.4045C272.475 41.6341 273.341 40.7867 274.189 39.8622C275.075 38.9378 275.884 38.0711 276.616 37.2622C277.386 36.4533 278.06 35.76 278.638 35.1822C279.216 34.6044 279.678 34.2578 280.024 34.1422C280.487 34.1422 280.718 34.3926 280.718 34.8933C280.718 35.0089 280.544 35.2785 280.198 35.7022C279.851 36.1259 279.408 36.6267 278.869 37.2044C278.33 37.7822 277.733 38.4178 277.078 39.1111C276.461 39.7659 275.845 40.4015 275.229 41.0178C274.651 41.5956 274.131 42.1156 273.669 42.5778C273.207 43.0015 272.898 43.2711 272.744 43.3867C271.897 44.157 270.915 44.8889 269.798 45.5822C268.681 46.2756 267.544 46.6222 266.389 46.6222C265.618 46.6222 264.983 46.4682 264.482 46.16C263.981 45.8519 263.577 45.4474 263.269 44.9467C262.961 44.4845 262.749 43.9259 262.633 43.2711C262.518 42.6548 262.46 42.0193 262.46 41.3644C262.46 40.3244 262.653 38.9185 263.038 37.1467C263.384 35.3748 263.866 33.4489 264.482 31.3689C265.098 29.2504 265.792 27.0741 266.562 24.84C267.333 22.5674 268.141 20.4296 268.989 18.4267C269.836 16.3852 270.664 14.5748 271.473 12.9955C272.282 11.3778 273.014 10.1644 273.669 9.35554Z" fill="black"/>
<path d="M250.029 30.791C250.53 30.791 250.973 30.9258 251.358 31.1955C251.781 31.4651 252.128 31.8118 252.398 32.2355C252.513 32.0814 252.706 31.8503 252.976 31.5421C253.284 31.1955 253.534 31.0221 253.727 31.0221C253.996 31.0221 254.208 31.0606 254.362 31.1377C254.555 31.2147 254.651 31.4073 254.651 31.7155C254.651 31.9851 254.536 32.3895 254.304 32.9288C254.073 33.4295 253.823 34.0266 253.553 34.7199C253.322 35.3747 253.091 36.0681 252.86 36.7999C252.629 37.4932 252.513 38.1866 252.513 38.8799C252.513 39.3421 252.61 39.8044 252.802 40.2666C252.995 40.7288 253.38 40.9599 253.958 40.9599C254.844 40.9599 255.807 40.594 256.847 39.8621C257.925 39.1303 258.946 38.3214 259.909 37.4355C260.91 36.511 261.777 35.6829 262.509 34.951C263.241 34.2192 263.722 33.8532 263.953 33.8532C264.184 33.8532 264.377 33.9303 264.531 34.0844C264.724 34.2384 264.82 34.431 264.82 34.6621C264.82 35.0858 264.377 35.7406 263.491 36.6266C262.605 37.5125 261.565 38.3984 260.371 39.2844C259.177 40.1703 257.964 40.9407 256.731 41.5955C255.537 42.2503 254.593 42.5777 253.9 42.5777C252.783 42.5777 251.974 42.231 251.473 41.5377C251.011 40.8058 250.78 39.9392 250.78 38.9377C250.78 38.591 250.818 38.2444 250.896 37.8977C250.973 37.551 251.011 37.2044 251.011 36.8577C250.587 37.2814 250.087 37.8399 249.509 38.5332C248.97 39.2266 248.392 39.9007 247.776 40.5555C247.159 41.1718 246.504 41.711 245.811 42.1732C245.156 42.6355 244.482 42.8666 243.789 42.8666C243.173 42.8666 242.691 42.6355 242.344 42.1732C241.959 41.711 241.767 41.191 241.767 40.6132C241.767 39.7658 242.036 38.7836 242.575 37.6666C243.076 36.5495 243.731 35.4903 244.54 34.4888C245.349 33.4488 246.235 32.5821 247.198 31.8888C248.161 31.1569 249.104 30.791 250.029 30.791ZM243.962 41.2488C244.424 41.2488 245.002 40.9407 245.695 40.3244C246.389 39.6695 247.101 38.9184 247.833 38.071C248.565 37.2236 249.239 36.3762 249.856 35.5288C250.472 34.6814 250.934 34.0651 251.242 33.6799C251.165 33.3718 251.011 33.0636 250.78 32.7555C250.587 32.4473 250.298 32.2932 249.913 32.2932C249.335 32.2932 248.661 32.6206 247.891 33.2755C247.121 33.9303 246.408 34.7199 245.753 35.6444C245.098 36.5303 244.54 37.4547 244.078 38.4177C243.616 39.3421 243.384 40.074 243.384 40.6132C243.384 41.0369 243.577 41.2488 243.962 41.2488Z" fill="black"/>
<path d="M225.485 29.3467C225.986 29.3467 226.237 29.6163 226.237 30.1556C226.237 30.3096 226.198 30.4252 226.121 30.5022C225.928 30.9645 225.697 31.4459 225.428 31.9467C225.197 32.4089 224.965 32.8711 224.734 33.3333C224.08 34.6815 223.483 36.0682 222.943 37.4934C222.404 38.9185 221.98 40.3822 221.672 41.8845C221.942 41.5763 222.443 40.9793 223.174 40.0934C223.945 39.2074 224.754 38.3022 225.601 37.3778C226.487 36.4534 227.296 35.6445 228.028 34.9511C228.798 34.2193 229.299 33.8534 229.53 33.8534C230.031 33.8534 230.281 34.1422 230.281 34.72C230.281 35.1437 230.243 35.5867 230.165 36.0489C230.088 36.4726 230.05 36.9156 230.05 37.3778C230.05 37.6474 230.05 38.0134 230.05 38.4756C230.088 38.9378 230.165 39.4 230.281 39.8622C230.397 40.3245 230.551 40.7289 230.743 41.0756C230.974 41.3837 231.283 41.5378 231.668 41.5378C232.207 41.5378 232.727 41.3067 233.228 40.8445C233.767 40.3437 234.248 39.7659 234.672 39.1111C235.096 38.4178 235.443 37.7245 235.712 37.0311C236.02 36.3378 236.232 35.76 236.348 35.2978C235.924 34.8741 235.558 34.4119 235.25 33.9111C234.98 33.3719 234.845 32.7941 234.845 32.1778C234.845 31.8311 234.903 31.4267 235.019 30.9645C235.134 30.5022 235.443 30.2711 235.943 30.2711C236.328 30.2711 236.656 30.3674 236.925 30.56C237.234 30.7526 237.465 31.003 237.619 31.3111C237.811 31.6193 237.946 31.9659 238.023 32.3511C238.1 32.6978 238.139 33.0445 238.139 33.3911C238.139 33.9304 238.081 34.4311 237.965 34.8934C238.274 35.0859 238.601 35.2208 238.948 35.2978C239.294 35.3748 239.622 35.4134 239.93 35.4134C240.431 35.4134 240.931 35.3363 241.432 35.1822C241.971 35.0282 242.472 34.8548 242.934 34.6622C243.435 34.4696 243.859 34.2963 244.205 34.1422C244.552 33.9882 244.803 33.9111 244.957 33.9111C245.149 33.9111 245.303 33.9689 245.419 34.0845C245.573 34.2 245.65 34.3541 245.65 34.5467C245.65 34.9319 245.4 35.2785 244.899 35.5867C244.398 35.8563 243.82 36.0874 243.165 36.28C242.549 36.4726 241.914 36.6267 241.259 36.7422C240.643 36.8578 240.18 36.9156 239.872 36.9156C238.986 36.9156 238.235 36.7615 237.619 36.4534C237.426 36.9926 237.137 37.6474 236.752 38.4178C236.405 39.1497 235.982 39.8622 235.481 40.5556C234.98 41.2104 234.422 41.7882 233.805 42.2889C233.228 42.7511 232.592 42.9822 231.899 42.9822C231.051 42.9822 230.397 42.7704 229.934 42.3467C229.472 41.8845 229.125 41.3259 228.894 40.6711C228.663 40.0163 228.528 39.323 228.49 38.5911C228.49 37.8593 228.509 37.1852 228.548 36.5689C228.394 36.723 228.105 37.0311 227.681 37.4934C227.257 37.9556 226.757 38.4948 226.179 39.1111C225.64 39.7274 225.062 40.3822 224.445 41.0756C223.829 41.7304 223.251 42.3467 222.712 42.9245C222.211 43.5022 221.788 43.9837 221.441 44.3689C221.056 44.7541 220.844 44.966 220.805 45.0045C220.343 45.0045 220.074 44.8889 219.997 44.6578C219.881 44.4652 219.823 44.1571 219.823 43.7334C219.823 43.3867 219.92 42.8089 220.112 42C220.305 41.1526 220.574 40.1897 220.921 39.1111C221.229 38.0326 221.595 36.9348 222.019 35.8178C222.404 34.6622 222.808 33.603 223.232 32.64C223.656 31.6771 224.06 30.8874 224.445 30.2711C224.869 29.6548 225.216 29.3467 225.485 29.3467ZM236.579 33.1022C236.579 32.7941 236.521 32.5245 236.405 32.2933C236.405 32.4474 236.425 32.5822 236.463 32.6978C236.502 32.8133 236.54 32.9482 236.579 33.1022Z" fill="black"/>
<path d="M196.351 31.1379C196.544 31.1379 196.736 31.2149 196.929 31.369C197.121 31.523 197.218 31.7156 197.218 31.9468C197.218 32.1008 197.064 32.5053 196.756 33.1601C196.447 33.7764 196.12 34.5082 195.773 35.3556C195.427 36.1645 195.099 37.0312 194.791 37.9556C194.483 38.8416 194.329 39.6312 194.329 40.3245C194.329 40.5171 194.348 40.7675 194.387 41.0756C194.464 41.3838 194.637 41.5379 194.907 41.5379C195.292 41.5379 195.793 41.2875 196.409 40.7868C197.025 40.2475 197.68 39.5927 198.373 38.8223C199.067 38.0519 199.779 37.2238 200.511 36.3379C201.243 35.4134 201.917 34.566 202.533 33.7956C203.188 33.0253 203.747 32.3897 204.209 31.889C204.671 31.3497 204.999 31.0801 205.191 31.0801C205.461 31.0801 205.673 31.1186 205.827 31.1956C206.019 31.2727 206.116 31.4653 206.116 31.7734C206.116 32.0816 206 32.5438 205.769 33.1601C205.576 33.7379 205.345 34.3927 205.076 35.1245C204.806 35.8179 204.556 36.5497 204.324 37.3201C204.132 38.0905 204.036 38.8223 204.036 39.5156C204.036 39.7853 204.074 40.1127 204.151 40.4979C204.228 40.8445 204.459 41.0179 204.844 41.0179C205.345 41.0179 206.019 40.5556 206.867 39.6312C207.714 38.6682 208.639 37.4549 209.64 35.9912C210.641 34.5275 211.662 32.9097 212.702 31.1379C213.781 29.366 214.782 27.6519 215.707 25.9956C216.631 24.3393 217.459 22.8564 218.191 21.5467C218.923 20.1986 219.443 19.2356 219.751 18.6579C217.324 18.889 214.917 19.1393 212.529 19.409C210.141 19.6786 207.733 20.006 205.307 20.3912C204.19 20.5838 203.053 20.8342 201.898 21.1423C200.742 21.4504 199.606 21.6045 198.489 21.6045C197.834 21.6045 197.507 21.2771 197.507 20.6223C197.507 20.4297 197.661 20.2756 197.969 20.1601C198.277 20.006 198.624 19.8904 199.009 19.8134C199.433 19.6979 199.818 19.6016 200.164 19.5245C200.55 19.4475 200.819 19.409 200.973 19.409C204.247 18.8697 207.521 18.4075 210.796 18.0223C214.108 17.5986 217.401 17.2327 220.676 16.9245C220.791 16.6164 221.003 16.0386 221.311 15.1912C221.658 14.3053 222.004 13.4193 222.351 12.5334C222.736 11.6475 223.121 10.8578 223.507 10.1645C223.93 9.47118 224.296 9.12451 224.604 9.12451C225.144 9.12451 225.413 9.39414 225.413 9.9334C224.99 11.089 224.527 12.2445 224.027 13.4001C223.564 14.5171 223.102 15.6341 222.64 16.7512C224.104 16.6741 225.567 16.5971 227.031 16.5201C228.533 16.443 230.036 16.4045 231.538 16.4045C232.039 16.4045 232.886 16.4238 234.08 16.4623C235.274 16.5008 236.487 16.6164 237.72 16.809C238.991 16.963 240.089 17.2327 241.013 17.6179C241.976 18.003 242.458 18.5423 242.458 19.2356C242.458 19.4282 242.4 19.6208 242.284 19.8134C242.207 20.006 242.034 20.1023 241.764 20.1023C241.341 20.1023 241.09 20.0253 241.013 19.8712C240.936 19.6786 240.801 19.4667 240.609 19.2356C240.378 18.966 239.858 18.7542 239.049 18.6001C238.279 18.446 237.412 18.3304 236.449 18.2534C235.524 18.1379 234.619 18.0801 233.733 18.0801C232.847 18.0416 232.212 18.0223 231.827 18.0223C230.17 18.0223 228.514 18.0608 226.858 18.1379C225.24 18.2149 223.603 18.3112 221.947 18.4267C221.176 20.4297 220.271 22.8179 219.231 25.5912C218.191 28.326 217.209 31.1571 216.284 34.0845C215.36 37.0119 214.57 39.8623 213.916 42.6356C213.261 45.409 212.933 47.8164 212.933 49.8579C212.933 50.2045 212.933 50.5512 212.933 50.8979C212.933 51.2445 212.991 51.572 213.107 51.8801C213.222 52.3038 213.396 52.612 213.627 52.8045C213.858 52.9971 214.089 53.1512 214.32 53.2668C214.551 53.3823 214.744 53.4979 214.898 53.6134C215.052 53.7675 215.129 53.9794 215.129 54.249C215.129 54.4801 215.013 54.6534 214.782 54.769C214.59 54.9231 214.397 55.0001 214.204 55.0001C213.588 55.0001 213.087 54.8075 212.702 54.4223C212.356 54.0371 212.067 53.5557 211.836 52.9779C211.643 52.4386 211.508 51.8608 211.431 51.2445C211.354 50.6282 211.316 50.089 211.316 49.6268C211.316 48.009 211.489 46.2371 211.836 44.3112C212.182 42.4238 212.606 40.5171 213.107 38.5912C213.646 36.6268 214.224 34.7201 214.84 32.8712C215.456 31.0223 216.034 29.3275 216.573 27.7867C216.304 28.2875 215.899 29.0193 215.36 29.9823C214.859 30.9068 214.262 31.9275 213.569 33.0445C212.914 34.1231 212.201 35.2401 211.431 36.3956C210.661 37.5127 209.89 38.5334 209.12 39.4579C208.35 40.3823 207.599 41.1334 206.867 41.7112C206.173 42.289 205.557 42.5779 205.018 42.5779C204.016 42.5779 203.323 42.3082 202.938 41.769C202.553 41.1912 202.36 40.4401 202.36 39.5156C202.36 38.9764 202.398 38.4371 202.476 37.8979C202.591 37.3201 202.726 36.7616 202.88 36.2223C202.495 36.7231 201.975 37.3586 201.32 38.129C200.665 38.8994 199.953 39.6505 199.182 40.3823C198.45 41.1142 197.699 41.7497 196.929 42.289C196.158 42.7897 195.446 43.0401 194.791 43.0401C194.021 43.0401 193.481 42.7705 193.173 42.2312C192.827 41.6919 192.653 41.0949 192.653 40.4401C192.653 40.0934 192.788 39.4194 193.058 38.4179C193.289 37.3779 193.597 36.3186 193.982 35.2401C194.329 34.1616 194.714 33.2179 195.138 32.409C195.6 31.5616 196.004 31.1379 196.351 31.1379Z" fill="black"/>
<path d="M148.225 26.0533C148.225 22.8947 148.86 19.9673 150.131 17.271C151.441 14.5362 153.155 12.1095 155.273 9.99102C157.392 7.8725 159.799 6.08139 162.496 4.61768C165.231 3.11546 168.023 1.99842 170.874 1.26657C172.222 0.958418 173.589 0.746568 174.976 0.631013C176.362 0.476939 177.749 0.399902 179.136 0.399902C181.177 0.399902 183.276 0.592495 185.434 0.97768C187.591 1.36287 189.555 2.03694 191.327 2.9999C193.137 3.92435 194.62 5.19546 195.776 6.81324C196.931 8.43102 197.509 10.4918 197.509 12.9955C197.509 14.9214 197.105 16.7318 196.296 18.4266C195.525 20.1214 194.505 21.6429 193.234 22.991C191.962 24.3392 190.499 25.5333 188.842 26.5733C187.225 27.5747 185.568 28.3644 183.874 28.9421C184.759 29.3658 185.549 29.9051 186.242 30.5599C186.974 31.1762 187.552 31.9273 187.976 32.8133C188.669 32.6977 189.401 32.6399 190.171 32.6399C190.441 32.6399 190.672 32.717 190.865 32.871C191.057 32.9866 191.154 33.1792 191.154 33.4488C191.154 33.7184 191.057 33.9303 190.865 34.0844C190.672 34.2384 190.422 34.354 190.114 34.431C189.844 34.5081 189.555 34.5659 189.247 34.6044C188.939 34.6044 188.688 34.6044 188.496 34.6044C188.573 34.797 188.611 35.0088 188.611 35.2399C188.611 35.4325 188.611 35.6444 188.611 35.8755C188.611 37.8399 188.053 39.6888 186.936 41.4222C185.857 43.117 184.471 44.5999 182.776 45.871C181.119 47.1422 179.29 48.1436 177.287 48.8755C175.322 49.6073 173.454 49.9733 171.682 49.9733C171.066 49.9733 170.411 49.9155 169.718 49.7999C169.025 49.6844 168.389 49.4725 167.811 49.1644C167.234 48.8948 166.752 48.4903 166.367 47.9511C166.02 47.4503 165.847 46.8148 165.847 46.0444C165.847 44.7733 166.194 43.5985 166.887 42.5199C167.619 41.4029 168.562 40.4014 169.718 39.5155C170.874 38.591 172.183 37.7822 173.647 37.0888C175.149 36.357 176.632 35.7407 178.096 35.2399C179.598 34.7007 181.042 34.2577 182.429 33.911C183.816 33.5259 185.01 33.2562 186.011 33.1022C185.78 32.7555 185.453 32.3896 185.029 32.0044C184.644 31.6192 184.201 31.2725 183.7 30.9644C183.238 30.6177 182.737 30.3288 182.198 30.0977C181.697 29.8666 181.235 29.751 180.811 29.751C179.848 29.751 178.828 29.8473 177.749 30.0399C176.671 30.2325 175.573 30.3288 174.456 30.3288C174.225 30.3288 173.878 30.3288 173.416 30.3288C172.954 30.2903 172.491 30.2325 172.029 30.1555C171.605 30.0399 171.22 29.8859 170.874 29.6933C170.527 29.5007 170.354 29.2118 170.354 28.8266C170.354 28.4799 170.604 28.2103 171.105 28.0177C171.605 27.7866 172.183 27.6325 172.838 27.5555C173.531 27.4399 174.186 27.3821 174.802 27.3821C175.457 27.3436 175.9 27.3244 176.131 27.3244C177.865 27.3244 179.482 27.517 180.985 27.9021C182.718 27.4784 184.451 26.8236 186.185 25.9377C187.956 25.0518 189.555 23.9733 190.98 22.7021C192.405 21.3925 193.561 19.9095 194.447 18.2532C195.333 16.597 195.776 14.7866 195.776 12.8221C195.776 10.7421 195.217 9.0088 194.1 7.62213C192.983 6.23546 191.577 5.13768 189.882 4.32879C188.226 3.5199 186.416 2.96139 184.451 2.65324C182.525 2.30657 180.715 2.13324 179.02 2.13324C176.555 2.13324 174.128 2.40286 171.74 2.94212C169.352 3.44287 167.06 4.21324 164.865 5.25324C162.708 6.29324 160.705 7.58361 158.856 9.12435C157.007 10.6651 155.351 12.4755 153.887 14.5555C153.386 15.2873 152.885 16.1347 152.385 17.0977C151.922 18.0607 151.518 19.0621 151.171 20.1021C150.825 21.1421 150.536 22.1821 150.305 23.2221C150.112 24.2621 150.016 25.2444 150.016 26.1688C150.016 27.7096 150.247 28.9036 150.709 29.751C151.171 30.5984 151.672 31.2533 152.211 31.7155C152.751 32.1777 153.251 32.5436 153.714 32.8133C154.176 33.0444 154.407 33.3525 154.407 33.7377C154.407 33.9688 154.311 34.1807 154.118 34.3733C153.964 34.5273 153.771 34.6044 153.54 34.6044C153.348 34.6044 153.213 34.5659 153.136 34.4888C151.364 33.757 150.093 32.6207 149.322 31.0799C148.591 29.5392 148.225 27.8636 148.225 26.0533ZM167.696 46.0444C167.696 46.5451 167.831 46.9303 168.1 47.1999C168.37 47.5081 168.697 47.7392 169.082 47.8933C169.468 48.0473 169.891 48.1436 170.354 48.1822C170.816 48.2592 171.22 48.2977 171.567 48.2977C173.031 48.2977 174.648 47.9511 176.42 47.2577C178.192 46.6029 179.848 45.6977 181.389 44.5422C182.968 43.4251 184.278 42.1347 185.318 40.671C186.358 39.1688 186.878 37.6088 186.878 35.991C186.878 35.7984 186.859 35.6059 186.82 35.4133C186.82 35.1821 186.801 34.9703 186.762 34.7777C185.414 34.9703 184.008 35.2399 182.545 35.5866C181.081 35.9333 179.636 36.3762 178.211 36.9155C176.825 37.4162 175.476 38.0325 174.167 38.7644C172.857 39.4577 171.682 40.2666 170.642 41.191C169.988 41.7688 169.333 42.5007 168.678 43.3866C168.023 44.2725 167.696 45.1585 167.696 46.0444ZM159.087 50.1466C159.087 49.954 159.164 49.5881 159.318 49.0488C159.472 48.5096 159.645 47.9318 159.838 47.3155C160.069 46.6992 160.281 46.1022 160.474 45.5244C160.705 44.9466 160.859 44.5229 160.936 44.2533C162.669 39.0533 164.422 33.911 166.194 28.8266C167.965 23.7421 169.834 18.677 171.798 13.631C172.299 12.3599 172.838 10.9155 173.416 9.29769C173.994 7.67991 174.61 6.29324 175.265 5.13768C175.457 4.82954 175.727 4.67546 176.074 4.67546C176.69 4.67546 176.998 4.98361 176.998 5.5999C176.998 5.71546 176.979 5.7925 176.94 5.83101C176.401 7.41028 175.804 8.97028 175.149 10.511C174.494 12.0132 173.859 13.5347 173.242 15.0755C171.278 20.1214 169.41 25.1481 167.638 30.1555C165.866 35.1629 164.191 40.2473 162.611 45.4088C162.534 45.6399 162.399 46.0636 162.207 46.6799C162.053 47.3348 161.86 47.9896 161.629 48.6444C161.398 49.2992 161.148 49.877 160.878 50.3777C160.608 50.8785 160.339 51.1288 160.069 51.1288C159.414 51.1288 159.087 50.8014 159.087 50.1466Z" fill="black"/>
<path d="M97.9688 40.209C97.9688 39.1305 98.1613 38.0327 98.5465 36.9157C98.9317 35.7601 99.471 34.7201 100.164 33.7957C100.858 32.8712 101.686 32.1201 102.649 31.5423C103.612 30.926 104.671 30.6179 105.827 30.6179C105.942 30.6179 106.096 30.6179 106.289 30.6179C106.52 30.6179 106.732 30.6564 106.924 30.7334C107.155 30.772 107.348 30.849 107.502 30.9645C107.656 31.0416 107.733 31.1764 107.733 31.369C107.733 31.6771 107.637 31.9468 107.444 32.1779L107.56 32.2934C108.292 32.2549 108.985 32.1008 109.64 31.8312C110.333 31.5231 111.027 31.2149 111.72 30.9068C112.413 30.5601 113.107 30.252 113.8 29.9823C114.532 29.7127 115.264 29.5779 115.995 29.5779C117.421 29.5779 118.133 30.2712 118.133 31.6579C118.133 32.1586 118.018 32.7171 117.787 33.3334C117.555 33.9112 117.267 34.5275 116.92 35.1823C116.612 35.7986 116.304 36.4149 115.995 37.0312C115.726 37.6475 115.533 38.206 115.418 38.7068C115.957 38.0905 116.612 37.2816 117.382 36.2801C118.191 35.2401 119.038 34.2386 119.924 33.2757C120.849 32.3127 121.792 31.4845 122.755 30.7912C123.718 30.0979 124.624 29.7512 125.471 29.7512C126.241 29.7512 126.819 30.0016 127.204 30.5023C127.59 31.0031 127.782 31.6001 127.782 32.2934C127.782 32.9868 127.667 33.6801 127.435 34.3734C127.243 35.0283 127.031 35.6831 126.8 36.3379C126.569 36.9927 126.338 37.6668 126.107 38.3601C125.914 39.0149 125.818 39.689 125.818 40.3823C125.818 41.2683 126.299 41.7112 127.262 41.7112C128.187 41.7112 129.111 41.3646 130.035 40.6712C130.998 39.9394 131.884 39.1305 132.693 38.2446C133.502 37.3201 134.215 36.4727 134.831 35.7023C135.486 34.932 136.006 34.489 136.391 34.3734C136.584 34.3734 136.757 34.4505 136.911 34.6046C137.104 34.7586 137.2 34.9512 137.2 35.1823C137.2 35.2979 137.161 35.4327 137.084 35.5868C136.622 36.2801 136.006 37.0697 135.235 37.9557C134.504 38.8416 133.675 39.689 132.751 40.4979C131.865 41.3068 130.941 41.9809 129.978 42.5201C129.053 43.0594 128.148 43.329 127.262 43.329C126.338 43.329 125.587 43.0786 125.009 42.5779C124.47 42.1157 124.2 41.4031 124.2 40.4401C124.2 39.7468 124.296 39.0727 124.489 38.4179C124.681 37.7246 124.893 37.0697 125.124 36.4534C125.394 35.7986 125.625 35.1438 125.818 34.489C126.01 33.7957 126.107 33.1023 126.107 32.409C126.107 32.1779 126.049 31.9468 125.933 31.7157C125.856 31.4845 125.664 31.369 125.355 31.369C124.778 31.369 124.084 31.6964 123.275 32.3512C122.467 33.006 121.638 33.8342 120.791 34.8357C119.944 35.7986 119.077 36.8579 118.191 38.0134C117.305 39.169 116.496 40.2475 115.764 41.249C115.032 42.212 114.378 43.0209 113.8 43.6757C113.222 44.3305 112.818 44.6579 112.587 44.6579C112.394 44.6579 112.221 44.5809 112.067 44.4268C111.951 44.2727 111.893 44.0994 111.893 43.9068C111.893 43.252 112.124 42.3275 112.587 41.1334C113.049 39.9394 113.569 38.726 114.147 37.4934C114.724 36.2223 115.244 35.0668 115.707 34.0268C116.169 32.9868 116.4 32.2742 116.4 31.889C116.4 31.5038 116.227 31.3112 115.88 31.3112C115.264 31.3112 114.609 31.4268 113.915 31.6579C113.261 31.8505 112.606 32.0816 111.951 32.3512C111.296 32.6208 110.622 32.9097 109.929 33.2179C109.274 33.4875 108.638 33.6801 108.022 33.7957V33.969C108.022 34.8549 107.849 35.8949 107.502 37.089C107.194 38.2831 106.732 39.4194 106.115 40.4979C105.538 41.5379 104.806 42.4238 103.92 43.1557C103.072 43.8875 102.129 44.2534 101.089 44.2534C99.9332 44.2534 99.1243 43.8297 98.6621 42.9823C98.1999 42.1349 97.9688 41.2105 97.9688 40.209ZM99.5865 40.209C99.5865 40.7483 99.6828 41.2875 99.8754 41.8268C100.107 42.366 100.55 42.6357 101.204 42.6357C101.975 42.6357 102.668 42.289 103.284 41.5957C103.939 40.8638 104.478 40.0164 104.902 39.0534C105.364 38.052 105.711 37.0505 105.942 36.049C106.212 35.009 106.347 34.1808 106.347 33.5646C106.077 33.2949 105.942 33.006 105.942 32.6979C105.942 32.5823 105.981 32.4475 106.058 32.2934L105.769 32.2357C104.844 32.2357 103.997 32.5053 103.227 33.0446C102.495 33.5838 101.859 34.2579 101.32 35.0668C100.781 35.8371 100.357 36.6846 100.049 37.609C99.7406 38.5334 99.5865 39.4001 99.5865 40.209Z" fill="black"/>
<path d="M89.9364 30.5026C90.1675 30.5026 90.3601 30.5796 90.5142 30.7337C90.7068 30.8877 90.8031 31.0803 90.8031 31.3114C90.8031 31.4655 90.6683 31.8314 90.3986 32.4092C90.1675 32.987 89.8979 33.6611 89.5897 34.4314C89.3201 35.1633 89.0505 35.9337 88.7808 36.7426C88.5497 37.5514 88.4342 38.3026 88.4342 38.9959C88.4342 39.4581 88.5305 39.9203 88.7231 40.3826C88.9157 40.8063 89.3009 41.0181 89.8786 41.0181C90.8031 41.0181 91.8046 40.6522 92.8831 39.9203C94.0001 39.15 95.0594 38.3218 96.0609 37.4359C97.0623 36.55 97.9483 35.7411 98.7186 35.0092C99.489 34.2389 99.9897 33.8537 100.221 33.8537C100.76 33.8537 101.03 34.1233 101.03 34.6626C101.03 34.9707 100.818 35.3751 100.394 35.8759C99.9705 36.3766 99.412 36.9351 98.7186 37.5514C98.0638 38.1292 97.3127 38.7263 96.4653 39.3426C95.6179 39.9203 94.7705 40.4596 93.9231 40.9603C93.1142 41.4611 92.3246 41.8655 91.5542 42.1737C90.8223 42.4818 90.2253 42.6359 89.7631 42.6359C88.7231 42.6359 87.972 42.3085 87.5097 41.6537C87.0475 40.9603 86.8164 40.1322 86.8164 39.1692C86.8164 38.8226 86.9127 38.187 87.1053 37.2626C87.2979 36.2996 87.529 35.3174 87.7986 34.3159C88.1068 33.3144 88.4342 32.4285 88.7808 31.6581C89.166 30.8877 89.5512 30.5026 89.9364 30.5026ZM92.9409 22.4714C93.172 22.4714 93.3646 22.5485 93.5186 22.7025C93.7112 22.8566 93.8075 23.0685 93.8075 23.3381C93.7305 23.5307 93.5764 23.9159 93.3453 24.4937C93.1527 25.0329 92.9216 25.6107 92.652 26.227C92.3823 26.8048 92.0934 27.3248 91.7853 27.787C91.5157 28.2492 91.2846 28.4803 91.092 28.4803C90.4757 28.4803 90.1675 28.1914 90.1675 27.6137C90.1675 27.4211 90.2638 27.0551 90.4564 26.5159C90.6875 25.9381 90.9379 25.3603 91.2075 24.7825C91.5157 24.1663 91.8238 23.627 92.132 23.1648C92.4786 22.7025 92.7483 22.4714 92.9409 22.4714Z" fill="black"/>
<path d="M77.9526 9.29833C78.0682 9.06722 78.28 8.95166 78.5882 8.95166C78.8193 8.95166 79.0119 9.0287 79.1659 9.18277C79.3585 9.33685 79.4548 9.52944 79.4548 9.76055C79.4548 9.83758 79.4356 9.91462 79.3971 9.99166C79.3585 10.0687 79.32 10.1457 79.2815 10.2228C77.8948 12.4954 76.5467 14.9798 75.2371 17.6761C73.9659 20.3339 72.7719 23.088 71.6548 25.9383C70.5763 28.7502 69.5941 31.5813 68.7082 34.4317C67.8222 37.2435 67.0904 39.9591 66.5126 42.5784C66.9363 41.9235 67.5141 40.9413 68.2459 39.6317C68.9778 38.3221 69.7674 36.9932 70.6148 35.645C71.5008 34.2969 72.3867 33.122 73.2726 32.1206C74.1971 31.1191 75.0252 30.6183 75.7571 30.6183C76.2578 30.6183 76.6622 30.7339 76.9704 30.965C77.2785 31.1961 77.5096 31.485 77.6637 31.8317C77.8563 32.1783 77.9719 32.5635 78.0104 32.9872C78.0874 33.4109 78.1259 33.8346 78.1259 34.2583C78.1259 35.1828 78.0489 36.1072 77.8948 37.0317C77.7793 37.9561 77.7215 38.8998 77.7215 39.8628C77.7215 40.2865 77.7793 40.7487 77.8948 41.2495C78.0489 41.7502 78.3956 42.0006 78.9348 42.0006C79.7437 42.0006 80.5911 41.6154 81.4771 40.845C82.4015 40.0361 83.2874 39.1502 84.1348 38.1872C84.9823 37.2243 85.7526 36.3191 86.446 35.4717C87.1778 34.6243 87.7363 34.1428 88.1215 34.0272C88.3141 34.0272 88.5067 34.1043 88.6993 34.2583C88.8919 34.4124 88.9882 34.605 88.9882 34.8361C88.9882 35.1443 88.603 35.7798 87.8326 36.7428C87.0622 37.7058 86.1378 38.7072 85.0593 39.7472C84.0193 40.7487 82.9408 41.6539 81.8237 42.4628C80.7067 43.2332 79.8015 43.6184 79.1082 43.6184C78.4919 43.6184 77.9719 43.4835 77.5482 43.2139C77.163 42.9828 76.8548 42.6554 76.6237 42.2317C76.3926 41.808 76.2385 41.3458 76.1615 40.845C76.0845 40.3058 76.0459 39.7858 76.0459 39.285C76.0459 38.3991 76.1037 37.5324 76.2193 36.685C76.3734 35.8376 76.4504 34.9709 76.4504 34.085C76.4504 34.008 76.4504 33.8732 76.4504 33.6806C76.4504 33.488 76.4311 33.2954 76.3926 33.1028C76.3541 32.8717 76.2771 32.6791 76.1615 32.525C76.0845 32.3709 75.9689 32.2939 75.8148 32.2939C75.3526 32.2939 74.7941 32.6791 74.1393 33.4495C73.523 34.1813 72.8489 35.125 72.1171 36.2806C71.4237 37.4361 70.7111 38.688 69.9793 40.0361C69.2859 41.3843 68.5926 42.6554 67.8993 43.8495C67.2445 45.0435 66.6474 46.045 66.1082 46.8539C65.5689 47.7013 65.1452 48.1635 64.837 48.2406C64.4904 48.2406 64.2785 48.0865 64.2015 47.7784C64.1245 47.4702 64.0859 47.1813 64.0859 46.9117C64.0859 45.7561 64.3363 44.1576 64.837 42.1161C65.2993 40.0361 65.9348 37.7635 66.7437 35.2983C67.5141 32.8332 68.4 30.2717 69.4015 27.6139C70.403 24.9561 71.4045 22.4332 72.4059 20.045C73.4459 17.6183 74.4474 15.4613 75.4104 13.5739C76.3734 11.648 77.2208 10.2228 77.9526 9.29833Z" fill="black"/>
<path d="M43.181 30.7334C43.7203 30.7334 44.1825 30.8683 44.5677 31.1379C44.9914 31.4075 45.3381 31.7542 45.6077 32.1779C45.7232 32.0238 45.9158 31.7927 46.1855 31.4845C46.4551 31.1764 46.7055 31.0223 46.9366 31.0223C47.5529 31.0223 47.861 31.2534 47.861 31.7157C47.861 31.9853 47.7455 32.3897 47.5143 32.929C47.2832 33.4683 47.0329 34.0846 46.7632 34.7779C46.4936 35.4327 46.2432 36.126 46.0121 36.8579C45.781 37.5897 45.6655 38.2831 45.6655 38.9379C45.6655 39.3616 45.7425 39.8046 45.8966 40.2668C46.0506 40.729 46.3973 40.9601 46.9366 40.9601C47.5914 40.9601 48.3232 40.6905 49.1321 40.1512C49.9795 39.5734 50.8462 38.8609 51.7321 38.0134C52.6181 37.166 53.504 36.2608 54.3899 35.2979C55.2758 34.2964 56.104 33.372 56.8744 32.5245C57.6447 31.6771 58.3188 30.9838 58.8966 30.4445C59.5129 29.8668 59.9944 29.5779 60.341 29.5779C60.5721 29.5779 60.784 29.6549 60.9766 29.809C61.1692 29.9631 61.2655 30.1749 61.2655 30.4445C61.2655 30.5986 61.1114 30.8105 60.8032 31.0801C60.5336 31.3497 60.2062 31.6964 59.821 32.1201C59.4744 32.5053 59.1469 32.9868 58.8388 33.5646C58.5692 34.1038 58.4344 34.7201 58.4344 35.4134C58.4344 35.9142 58.4921 36.3957 58.6077 36.8579C58.7232 37.3201 58.8773 37.7823 59.0699 38.2446C59.4166 38.0134 59.9751 37.6668 60.7455 37.2046C61.5158 36.7423 62.3247 36.2801 63.1721 35.8179C64.0581 35.3171 64.8862 34.8934 65.6566 34.5468C66.427 34.1616 66.9662 33.969 67.2744 33.969C67.467 33.969 67.6403 34.046 67.7944 34.2001C67.987 34.3542 68.0832 34.5468 68.0832 34.7779C68.0832 35.0475 67.9099 35.2786 67.5633 35.4712C66.2536 36.2416 64.9247 36.9542 63.5766 37.609C62.2284 38.2253 60.9188 38.9571 59.6477 39.8046C59.8788 40.4209 60.0714 41.0564 60.2255 41.7112C60.3795 42.3275 60.4566 42.9631 60.4566 43.6179C60.4566 44.4268 60.3218 45.2549 60.0521 46.1023C59.821 46.9883 59.4551 47.7972 58.9544 48.529C58.4921 49.2609 57.8951 49.8579 57.1632 50.3201C56.4314 50.7823 55.6032 51.0135 54.6788 51.0135C53.6773 51.0135 52.8299 50.7053 52.1366 50.089C51.4818 49.4727 51.1544 48.6638 51.1544 47.6623C51.1544 46.8149 51.3662 45.9675 51.7899 45.1201C52.2521 44.3112 52.8106 43.5409 53.4655 42.809C54.1203 42.0771 54.8329 41.4223 55.6032 40.8446C56.3736 40.2283 57.0862 39.689 57.741 39.2268C57.4329 38.6105 57.1825 37.9557 56.9899 37.2623C56.7973 36.569 56.7203 35.8757 56.7588 35.1823C56.2581 35.7601 55.6032 36.4727 54.7944 37.3201C54.024 38.129 53.1766 38.9379 52.2521 39.7468C51.3662 40.5171 50.4418 41.1912 49.4788 41.769C48.5544 42.3083 47.7069 42.5779 46.9366 42.5779C45.9351 42.5779 45.2032 42.2312 44.741 41.5379C44.3173 40.806 44.1055 39.9779 44.1055 39.0534C44.1055 38.6297 44.144 38.2446 44.221 37.8979C44.298 37.5127 44.3366 37.1083 44.3366 36.6846C43.8743 37.1468 43.3736 37.7246 42.8343 38.4179C42.2951 39.1112 41.698 39.7853 41.0432 40.4401C40.4269 41.0949 39.7721 41.6727 39.0788 42.1734C38.3855 42.6357 37.6921 42.8668 36.9988 42.8668C36.3825 42.8668 35.901 42.6357 35.5543 42.1734C35.1692 41.7112 34.9766 41.1912 34.9766 40.6134C34.9766 39.766 35.2462 38.7838 35.7855 37.6668C36.2862 36.5112 36.941 35.4327 37.7499 34.4312C38.5588 33.3912 39.4447 32.5245 40.4077 31.8312C41.3706 31.0994 42.2951 30.7334 43.181 30.7334ZM52.8877 47.6623C52.8877 48.2016 53.0418 48.6253 53.3499 48.9335C53.6966 49.2801 54.1395 49.4535 54.6788 49.4535C55.3721 49.4535 55.9692 49.2609 56.4699 48.8757C56.9707 48.529 57.3751 48.0668 57.6832 47.489C58.0299 46.9112 58.2803 46.2949 58.4344 45.6401C58.627 44.9853 58.7232 44.369 58.7232 43.7912C58.7232 42.7897 58.5692 41.769 58.261 40.729C57.7988 41.0757 57.2403 41.5186 56.5855 42.0579C55.9692 42.5972 55.3914 43.1557 54.8521 43.7334C54.3129 44.3497 53.8506 44.9853 53.4655 45.6401C53.0803 46.3334 52.8877 47.0075 52.8877 47.6623ZM37.1721 41.249C37.6343 41.249 38.2121 40.9409 38.9055 40.3246C39.5988 39.6697 40.3114 38.9186 41.0432 38.0712C41.7751 37.2238 42.4492 36.3764 43.0655 35.529C43.6818 34.6816 44.144 34.0653 44.4521 33.6801C44.3751 33.372 44.221 33.0638 43.9899 32.7557C43.7973 32.4475 43.5084 32.2934 43.1232 32.2934C42.5455 32.2934 41.8714 32.6208 41.101 33.2757C40.3306 33.9305 39.618 34.7201 38.9632 35.6446C38.3084 36.5305 37.7499 37.4549 37.2877 38.4179C36.8255 39.3423 36.5943 40.0742 36.5943 40.6134C36.5943 41.0371 36.7869 41.249 37.1721 41.249Z" fill="black"/>
<path d="M0 17.0984C0 16.7902 0.134815 16.5399 0.404445 16.3473C2.36889 15.0376 4.68 13.7665 7.33778 12.5339C9.99556 11.3013 12.8459 10.1458 15.8889 9.06727C18.9704 7.98876 22.1482 7.00653 25.4222 6.1206C28.7348 5.19616 31.9897 4.42579 35.1867 3.80949C38.3837 3.15468 41.446 2.65394 44.3734 2.30727C47.3008 1.92208 49.9393 1.72949 52.2889 1.72949C53.406 1.72949 54.6578 1.80653 56.0445 1.9606C57.4697 2.07616 58.7986 2.36505 60.0312 2.82727C61.2638 3.28949 62.3038 3.96356 63.1512 4.84949C64.0371 5.6969 64.4801 6.87172 64.4801 8.37394C64.4801 8.60505 64.4415 8.99024 64.3645 9.5295C64.2875 10.0302 64.1719 10.5502 64.0178 11.0895C63.8638 11.6288 63.6712 12.1102 63.44 12.5339C63.2089 12.9576 62.92 13.1695 62.5734 13.1695C62.3423 13.1695 62.1304 13.0925 61.9378 12.9384C61.7452 12.7843 61.6489 12.5725 61.6489 12.3028C61.6489 11.6865 61.8223 11.0895 62.1689 10.5117C62.5156 9.89542 62.6889 9.22135 62.6889 8.48949C62.6889 7.29542 62.3038 6.37098 61.5334 5.71616C60.763 5.02283 59.8193 4.52209 58.7023 4.21394C57.6237 3.86727 56.4874 3.65542 55.2934 3.57838C54.0993 3.50134 53.0786 3.46282 52.2312 3.46282C48.726 3.46282 45.0667 3.75171 41.2534 4.32949C37.4785 4.90727 33.6845 5.6969 29.8711 6.69838C26.0963 7.66135 22.3985 8.79764 18.7778 10.1073C15.157 11.3784 11.7482 12.7458 8.55112 14.2095C8.32001 14.3251 7.80001 14.5947 6.99112 15.0184C6.18223 15.4036 5.33482 15.8273 4.44889 16.2895C3.60148 16.7132 2.81185 17.1176 2.08 17.5028C1.38667 17.8495 1.00148 18.0228 0.924445 18.0228C0.693334 18.0228 0.481482 17.9458 0.288889 17.7917C0.0962964 17.5991 0 17.368 0 17.0984ZM12.3645 32.0051C12.3645 31.6584 12.557 31.3888 12.9422 31.1962C13.2504 31.0036 13.8859 30.7532 14.8489 30.4451C15.8119 30.1369 16.8519 29.848 17.9689 29.5784C19.1245 29.2703 20.2222 29.0006 21.2622 28.7695C22.3022 28.5384 23.0534 28.3651 23.5156 28.2495C23.7082 27.7873 24.0741 26.9591 24.6134 25.7651C25.1526 24.5325 25.7882 23.1458 26.52 21.6051C27.2519 20.0258 28.0222 18.408 28.8311 16.7517C29.64 15.0569 30.4104 13.5162 31.1422 12.1295C31.9126 10.7428 32.5867 9.60653 33.1645 8.72061C33.7808 7.79616 34.243 7.33394 34.5511 7.33394C34.7822 7.33394 34.9941 7.43024 35.1867 7.62283C35.3793 7.7769 35.4756 7.9695 35.4756 8.20061C35.4756 8.35468 35.4371 8.50876 35.36 8.66283C33.5497 11.7828 31.8356 14.9221 30.2178 18.0806C28.6 21.2006 27.0785 24.4362 25.6534 27.7873C26.6548 27.5947 27.6371 27.4406 28.6 27.3251C29.6015 27.171 30.603 27.094 31.6045 27.094C31.9511 27.094 32.4134 27.1325 32.9911 27.2095C33.6074 27.248 34.1852 27.3636 34.7245 27.5562C35.3023 27.7103 35.7837 27.9606 36.1689 28.3073C36.5926 28.6154 36.8045 29.0199 36.8045 29.5206C36.8045 29.7903 36.7082 30.0021 36.5156 30.1562C36.323 30.3103 36.1111 30.3873 35.88 30.3873C35.6874 30.3873 35.5141 30.3103 35.36 30.1562C35.206 30.0021 34.9941 29.8288 34.7245 29.6362C34.4934 29.4051 34.1467 29.2125 33.6845 29.0584C33.2608 28.9043 32.6445 28.8273 31.8356 28.8273C30.6415 28.8273 29.4667 28.9236 28.3111 29.1162C27.1556 29.3088 26.0193 29.5206 24.9022 29.7517C23.7852 32.4865 22.7452 35.2214 21.7822 37.9562C20.8578 40.691 20.0104 43.4836 19.24 46.334C18.9319 47.451 18.6815 48.6643 18.4889 49.974C18.3348 51.2836 18.0459 52.4392 17.6222 53.4406C17.5067 53.7103 17.3719 53.9029 17.2178 54.0184C17.1022 54.134 16.8904 54.1917 16.5822 54.1917C16.3126 54.1917 16.12 54.0762 16.0045 53.8451C15.8889 53.614 15.8311 53.3829 15.8311 53.1518C15.8311 52.6895 15.8889 52.2273 16.0045 51.7651C16.1585 51.3414 16.2741 50.9177 16.3511 50.494C17.16 46.9888 18.0845 43.5799 19.1245 40.2673C20.203 36.9162 21.3971 33.5843 22.7067 30.2717C22.2445 30.3873 21.5511 30.5991 20.6267 30.9073C19.7022 31.1769 18.72 31.4658 17.68 31.774C16.6785 32.0436 15.7348 32.294 14.8489 32.5251C14.0015 32.7562 13.4237 32.8717 13.1156 32.8717C12.8845 32.8717 12.6919 32.7754 12.5378 32.5828C12.4222 32.3903 12.3645 32.1977 12.3645 32.0051Z" fill="black"/>
</svg>
