<svg width="189" height="119" viewBox="0 0 189 119" fill="none" xmlns="http://www.w3.org/2000/svg">
<path d="M11.7222 66.4782C9.68344 65.9497 8.24879 65.0436 6.21007 63.0804C3.11423 60.06 2.28364 57.1907 3.34075 53.4153C5.45498 46.393 14.4405 37.4076 26.0687 30.8384C33.6195 26.5344 42.5295 23.363 51.7415 21.6264C54.3088 21.0978 56.272 20.9468 59.5944 20.7958C63.6718 20.7203 64.2759 20.7203 66.0126 21.2488C67.1452 21.5509 68.5798 22.1549 69.3349 22.608C70.6186 23.4386 72.0532 25.4018 72.0532 26.1569C72.0532 26.3834 72.5063 27.2895 73.0348 28.0446C74.696 30.6873 75.2246 32.9526 74.696 35.4444C73.4879 41.4095 66.3146 49.7154 55.5169 57.7193L52.5721 59.8335L54.8373 59.9845C58.6883 60.3621 60.727 61.1927 61.7841 63.0049C62.0861 63.6089 62.6902 64.515 63.2188 65.1191C65.937 68.3659 65.786 71.5373 62.9167 75.7657C61.5576 77.8045 57.7067 81.7309 54.9129 83.9961C47.6641 89.8103 37.2439 94.9448 28.183 97.1346C24.5586 97.9651 19.1975 98.1917 16.7057 97.5121C13.1568 96.5305 11.4201 95.3224 8.92836 92.0755C6.73862 89.2817 5.75702 87.545 6.13456 86.941C6.5121 86.3369 7.79574 86.1859 7.64472 86.7144C7.56921 86.941 7.56921 87.092 7.72023 87.092C7.87125 87.092 7.87125 87.243 7.79574 87.3185C7.72023 87.4695 7.87125 87.545 8.09777 87.394C8.47531 87.3185 8.47531 87.394 8.3998 87.9981C8.17328 89.0552 8.77734 89.5837 11.3446 90.4143C16.0261 92 21.8403 91.3204 29.9196 88.1491C36.1113 85.7328 43.7376 81.2023 49.6273 76.5208C53.8557 73.1985 59.5189 67.0068 58.9148 66.4782C58.7638 66.3272 56.725 66.2517 54.3843 66.2517C50.6089 66.2517 49.5518 66.4027 46.8335 66.9313C41.9254 67.9884 39.2827 68.97 35.1297 71.1597C32.0339 72.8209 31.2788 73.274 30.9768 73.878C30.6747 74.7086 29.2401 80.3717 28.4095 84.2982C27.6544 87.847 27.1258 88.6776 25.9177 88.3001C25.3891 88.0736 25.2381 87.847 25.2381 87.394C25.2381 87.092 25.0871 86.8654 24.9361 86.941C24.8606 87.092 24.7096 86.941 24.7096 86.7899C24.7096 86.5634 24.483 86.4124 24.03 86.4879C22.6709 86.4879 21.9913 83.9961 21.9913 78.8616C21.9913 72.5189 24.4075 64.062 27.9564 57.8703C29.4666 55.303 32.7134 50.4705 34.2991 48.5073C39.0561 42.5421 42.6805 39.5218 45.1723 39.5218C46.0784 39.5218 46.2294 39.5973 46.4559 40.2014C46.607 40.5789 47.1355 41.183 47.5886 41.485C48.0416 41.787 48.3436 42.0891 48.2681 42.2401C48.1926 42.3911 48.2681 42.4666 48.4191 42.4666C48.9477 42.4666 48.5702 43.6748 47.7396 44.8074C45.1723 48.0542 43.4356 50.395 42.303 52.1317C40.8683 54.2459 38.301 58.3989 38.301 58.6254C38.301 59.1539 50.0803 50.093 54.5353 46.1665C57.7822 43.4482 62.7657 38.3892 64.5024 36.3505C66.2391 34.2362 68.3533 30.7629 68.3533 30.0833C68.3533 29.7812 67.9758 29.5547 66.9942 29.1772C64.9554 28.5731 57.0271 28.5731 53.1762 29.2527C38.6786 31.5934 24.7851 38.3137 14.818 47.8277C12.0997 50.395 10.4385 52.5847 9.15489 55.2275C8.24879 57.0397 8.09777 57.6438 8.02226 59.2294C7.87125 60.8906 7.94675 61.1927 8.3998 61.6457C9.07938 62.3253 11.9487 63.2314 16.1016 64.062C17.9138 64.4395 19.8015 64.8926 20.2546 65.0436L21.0852 65.4211L20.5566 65.7987C19.0465 66.8558 14.4405 67.2333 11.7222 66.4782ZM26.6728 72.8964C26.8238 72.4434 26.8238 72.0658 26.6728 72.0658C26.4463 72.0658 25.5402 76.0678 25.3136 77.9555C25.2381 78.8616 25.3891 78.4085 25.8422 76.5963C26.1442 75.0862 26.5218 73.425 26.6728 72.8964ZM27.4279 66.1762C27.4279 66.7048 28.0319 65.6476 29.0135 63.4579C30.3727 60.2866 33.6951 54.9255 37.6215 49.3379L38.5276 47.9787L37.697 48.9603C36.6399 50.1685 32.8645 55.6806 31.0523 58.8519C29.5421 61.3437 27.4279 65.6476 27.4279 66.1762ZM30.9768 61.8722C33.4685 57.0397 37.1684 51.4521 40.5663 47.2236C42.8315 44.5053 43.2091 43.8258 41.6989 45.4114C38.9051 48.4318 36.1868 52.0562 33.091 57.1152C31.4298 59.8335 28.938 64.5905 28.938 64.9681C28.938 65.4966 29.5421 64.5905 30.9768 61.8722ZM31.8829 62.6273C33.0155 60.5131 36.1868 55.303 38.5276 51.9807C40.9438 48.5073 41.9254 47.2991 44.4172 44.3543L45.7764 42.8442L44.3417 44.2033C41.6989 46.6951 38.8296 50.546 35.2052 56.2846C33.3175 59.2294 31.1278 63.1559 31.1278 63.5334C31.1278 63.911 31.4298 63.6089 31.8829 62.6273ZM35.8848 60.211C35.9603 60.211 36.6399 59.2294 37.3194 58.0213C38.0745 56.8887 39.2071 55.001 39.9622 53.8684C40.6418 52.7357 41.1704 51.8296 41.0193 51.9051C40.5663 52.2072 35.6583 60.211 35.8848 60.211ZM53.5537 80.3717C54.6863 79.5411 56.6495 77.8045 57.8577 76.5963C59.1413 75.3882 60.3494 73.878 60.6515 73.274C61.029 72.6699 61.1045 72.3679 60.878 72.6699C58.7638 75.2372 57.7067 76.2943 52.5721 80.9758C51.8925 81.5799 52.2701 81.3533 53.5537 80.3717ZM58.5372 76.8984C58.8393 76.5208 59.0658 76.2188 58.9903 76.2188C58.9148 76.2188 58.6128 76.5208 58.2352 76.8984C57.9332 77.2004 57.7067 77.5024 57.7822 77.5024C57.8577 77.5024 58.1597 77.2004 58.5372 76.8984ZM62.6902 74.029C62.1616 74.4821 59.8964 77.729 60.0474 77.729C60.1229 77.729 60.6515 77.1249 61.18 76.4453C62.3882 74.8596 63.2188 73.5005 62.6902 74.029ZM61.4821 69.8761C61.4821 69.6496 61.029 70.1781 60.425 70.9332C58.9903 73.0474 58.5372 73.576 55.7434 76.4453C54.0068 78.2575 53.6292 78.7106 54.5353 77.9555C55.2149 77.4269 56.6495 76.0678 57.7067 75.0107C59.5944 73.0474 61.4821 70.5557 61.4821 69.8761ZM60.727 69.1965C60.727 69.121 60.3494 69.5741 59.8209 70.3291C59.3678 71.0842 58.4617 72.2924 57.8577 72.9719C57.2536 73.727 56.8761 74.2556 56.9516 74.2556C57.0271 74.2556 57.6311 73.727 58.1597 73.0474C59.2923 71.7638 60.727 69.6496 60.727 69.1965ZM63.8983 38.6912C63.6718 38.9177 63.4453 39.0688 63.4453 39.1443C63.4453 39.3708 63.6718 39.2198 63.9738 38.8422C64.2759 38.3892 64.2759 38.3892 63.8983 38.6912ZM61.331 44.3543C59.8209 45.8645 58.6883 47.1481 58.7638 47.1481C58.9148 47.1481 60.3494 45.789 62.0106 44.1278C64.5779 41.5605 67.9003 37.7096 67.9003 37.1811C67.9003 37.1055 66.9942 38.0116 66.0126 39.2953C64.9554 40.5789 62.8412 42.8442 61.331 44.3543ZM53.1007 52.9623L52.4966 53.6418L53.1762 53.1888C53.4782 52.8868 53.7802 52.5847 53.8557 52.5092C53.8557 52.2072 53.7047 52.2827 53.1007 52.9623ZM47.211 59.0784C47.5131 58.6254 47.5131 58.6254 47.1355 58.9274C46.8335 59.1539 46.6825 59.3049 46.6825 59.3805C46.6825 59.607 46.909 59.456 47.211 59.0784ZM52.7231 55.0765C59.6699 49.8664 63.5963 46.3175 66.5411 42.6931C66.7676 42.3911 65.5595 43.5237 63.6718 45.2604C59.4433 49.3379 55.8189 52.4337 50.0803 56.7377C48.7212 57.7193 47.6641 58.5499 47.6641 58.6254C47.6641 58.7764 48.9477 57.8703 52.7231 55.0765ZM60.0474 50.1685C60.3494 49.7909 60.3494 49.7909 59.8964 50.093C59.6699 50.244 59.5189 50.4705 59.5189 50.4705C59.5189 50.697 59.6699 50.546 60.0474 50.1685ZM62.0106 48.4318C62.3127 48.0542 62.3127 48.0542 61.9351 48.3563C61.6331 48.5073 61.4821 48.7338 61.4821 48.8093C61.4821 48.9603 61.7086 48.8093 62.0106 48.4318ZM69.637 42.8442C70.1655 42.0136 69.5614 42.6931 67.2962 45.2604C66.0881 46.6196 64.5779 48.2052 63.9738 48.8093C62.9167 49.8664 62.9167 49.8664 63.8228 49.1869C64.3514 48.7338 65.333 47.9032 65.937 47.2236C66.9942 46.091 68.8819 43.8258 69.637 42.8442ZM69.3349 37.1055C69.8635 36.1239 69.4859 36.5015 68.1268 38.2382C66.3146 40.6544 62.0106 45.1849 58.0087 48.6583C52.9496 53.1888 52.7986 53.4908 57.5556 49.6399C62.1616 45.8645 67.9003 39.7483 69.3349 37.1055ZM22.6709 37.7096C22.2933 38.0871 22.1423 38.2382 22.3688 38.2382C22.3688 38.2382 22.5953 38.0871 22.7464 37.8606C23.0484 37.4076 23.0484 37.4076 22.6709 37.7096ZM21.6137 38.4647L20.7831 39.0688C16.1016 42.1646 9.38141 48.8093 8.02226 51.6786L7.72023 52.4337L8.09777 51.8296C8.3998 51.5276 9.07938 50.546 9.68344 49.7154C11.1181 47.7522 16.0261 42.9197 18.3669 41.1075C19.4995 40.2769 20.6321 39.3708 21.0097 39.0688L21.6137 38.4647ZM5.75702 52.7357C5.75702 52.8112 6.13456 52.2072 6.66311 51.3011C7.19167 50.395 7.94675 49.1869 8.3243 48.7338L9.00387 47.7522L8.3243 48.5073C7.56921 49.3379 5.75702 52.3582 5.75702 52.7357ZM6.13456 53.5663C5.98354 53.8684 6.36108 53.3398 6.96515 52.3582C7.4937 51.3766 8.3998 49.9419 8.92836 49.1869C9.53243 48.4318 10.9671 46.7706 12.0997 45.5625C13.3078 44.3543 13.9874 43.5237 13.6854 43.6748C13.0813 43.9768 10.2875 46.9971 8.77734 48.8848C7.64472 50.395 6.36108 52.5847 6.13456 53.5663ZM70.0941 80.5983C69.7921 79.8432 69.4146 78.635 69.339 77.88C68.8105 71.9903 76.6633 57.5683 82.9305 52.9623C85.4223 51.1501 88.3671 50.1685 90.4813 50.4705C91.3874 50.6215 91.916 50.9235 93.1241 52.1317C93.9547 52.8868 94.9363 53.6418 95.2384 53.7173C95.5404 53.7929 95.7669 53.9439 95.7669 54.0949C95.7669 54.699 96.22 54.2459 96.975 53.1133C97.7301 51.8296 98.4852 51.4521 99.4668 51.7541C99.9954 51.9051 100.071 52.3582 99.6933 53.1888C99.3913 53.7173 99.3913 53.7173 99.9199 53.2643C100.373 52.8112 100.448 52.8112 100.448 53.1888C100.448 53.4153 100.599 53.4908 100.826 53.4153C101.052 53.3398 101.279 53.4908 101.355 53.7173C101.43 53.9439 101.581 54.0194 101.657 53.9439C101.808 53.8684 102.261 54.1704 102.789 54.6234C103.544 55.303 103.62 55.5295 103.62 56.5867C103.62 58.1723 102.789 61.1171 100.599 66.6292C99.6178 69.1965 98.4097 72.3679 98.0322 73.727C97.2771 76.2188 96.673 78.8616 96.8995 79.0126C97.1261 79.3146 100.448 76.5208 102.94 73.9535C105.507 71.3108 107.848 68.2904 112.53 61.8722C113.36 60.7396 114.115 59.758 114.191 59.8335C114.266 59.909 113.964 60.5886 113.436 61.2682C112.983 61.9477 112.53 62.5518 112.53 62.7028C112.53 62.7783 113.058 62.1743 113.587 61.4192C115.324 59.0029 114.946 60.2866 113.058 63.4579C105.507 75.8412 101.43 81.3533 98.4852 83.3166C97.3526 84.0716 94.7853 83.6941 94.4078 82.7125C94.3323 82.486 93.8037 82.1084 93.1996 81.8064C91.1609 80.8248 89.7263 78.1065 89.3487 74.7086L89.1977 72.8209L87.9896 74.6331C86.2529 77.1249 82.3265 82.1084 80.9673 83.6186C78.098 86.5634 76.8899 86.8654 75.0022 85.1288C74.3226 84.5247 73.5675 83.9961 73.2655 83.9961C72.5859 83.9961 70.8492 82.1839 70.0941 80.5983ZM110.869 65.2701C110.642 65.2701 110.642 65.3456 110.718 65.4966C110.944 65.8742 111.397 65.4211 111.473 64.666C111.548 64.364 111.548 64.213 111.397 64.2885C111.322 64.364 111.246 64.666 111.171 64.8926C111.171 65.1191 111.02 65.3456 110.869 65.2701ZM109.811 67.3843C109.509 67.6109 109.358 67.7619 109.358 67.8374C109.358 68.0639 109.509 67.9129 109.887 67.5353C110.189 67.0823 110.189 67.0823 109.811 67.3843ZM108.754 68.1394C108.679 68.2904 108.754 68.3659 108.981 68.3659C109.207 68.3659 109.358 68.2904 109.358 68.2904C109.358 68.0639 108.83 67.9884 108.754 68.1394ZM106.338 71.5373C105.961 71.9903 106.716 71.8393 107.169 71.4618C107.697 71.0087 108.377 69.7251 108.15 69.5741C107.999 69.4986 107.773 69.5741 107.546 69.8761C107.32 70.1781 107.32 70.2536 107.546 70.0271C107.848 69.8761 107.924 69.9516 107.848 70.1781C107.773 70.4047 107.546 70.5557 107.395 70.5557C107.244 70.5557 107.093 70.6312 106.942 70.7822C106.867 70.8577 106.867 70.9332 107.093 70.7822C107.32 70.6312 107.395 70.7067 107.32 70.9332C107.244 71.0842 107.093 71.3108 106.942 71.3108C106.791 71.3108 106.489 71.3863 106.338 71.5373ZM105.81 72.5189C105.961 72.4434 106.112 72.4434 106.112 72.5944C106.112 72.6699 105.961 72.8964 105.81 73.123C105.583 73.3495 105.583 73.425 105.81 73.274C105.961 73.1985 106.263 72.8964 106.338 72.6699C106.565 72.2924 106.565 72.2169 106.263 72.2169C106.036 72.2924 105.81 72.3679 105.734 72.5189C105.583 72.5944 105.658 72.6699 105.81 72.5189ZM104.752 73.6515C104.526 73.878 104.375 74.1046 104.45 74.1046C104.526 74.1046 104.752 73.878 104.979 73.6515C105.281 73.3495 105.432 73.123 105.356 73.123C105.281 73.123 104.979 73.3495 104.752 73.6515ZM103.62 75.0862C103.318 75.2372 103.167 75.4637 103.167 75.5392C103.167 75.6902 103.393 75.6147 103.695 75.1617C103.997 74.7841 103.997 74.7841 103.62 75.0862ZM77.5694 77.5779L77.7205 76.7473L77.3429 77.4269C77.1919 77.88 76.9654 78.7106 76.8899 79.3146L76.7388 80.4472L77.0409 79.3901C77.2674 78.8616 77.4184 78.031 77.5694 77.5779ZM87.159 73.1985C87.461 72.8209 87.3855 72.8209 87.008 73.123C86.7814 73.274 86.6304 73.5005 86.6304 73.5005C86.6304 73.727 86.7814 73.576 87.159 73.1985ZM87.8386 72.2169C88.1406 71.8393 88.1406 71.7638 87.763 72.1413C87.5365 72.2924 87.31 72.5189 87.31 72.5189C87.31 72.7454 87.5365 72.5944 87.8386 72.2169ZM101.959 59.3805C101.279 60.8151 97.4281 70.7822 96.975 72.2924C96.1445 75.2372 96.4465 74.7086 97.8056 70.7822C98.5607 68.7435 99.7689 65.5721 100.524 63.7599C101.732 60.8151 102.714 57.8703 101.959 59.3805ZM100.071 58.3233C99.6178 58.3233 94.9363 69.7251 95.0118 70.6312C95.0118 70.7822 95.0873 70.6312 96.22 67.6864C96.673 66.5537 97.5791 64.4395 98.1832 63.0804C99.5423 59.9845 100.222 58.3233 100.071 58.3233ZM96.673 62.5518C95.4649 63.9865 93.5017 70.0271 93.1241 72.9719C93.0486 73.878 93.1996 73.5005 93.7282 71.5373C94.1057 70.0271 95.0873 67.2333 95.8424 65.3456C96.824 62.8538 97.0506 62.0988 96.673 62.5518ZM94.4078 65.9497C94.5588 65.6476 94.5588 65.6476 94.1812 65.9497C93.7282 66.2517 92.8976 68.7435 92.6711 70.2536C92.5956 70.8577 92.8976 70.1781 93.3507 68.7435C93.8037 67.3843 94.2568 66.1007 94.4078 65.9497ZM91.3119 58.9274C87.763 61.2682 83.7611 66.4027 81.0428 71.9903C79.6082 75.0107 78.098 79.0881 78.4 79.0881C78.551 79.0881 79.1551 78.5595 79.8347 77.9555C83.006 75.0862 90.5568 65.0436 92.6711 60.8906C93.9547 58.3233 94.1057 57.3417 93.3507 57.6438C93.1241 57.7193 92.218 58.3233 91.3119 58.9274ZM83.157 60.7396C81.6469 62.4008 79.4571 65.7987 77.7205 69.121C76.2858 71.9903 74.7001 76.2943 74.7756 77.4269C74.7756 77.729 75.1532 76.8229 75.6062 75.4637C76.0593 74.1046 76.8144 72.0658 77.3429 70.9332C78.6266 67.7619 80.4388 64.7415 83.0815 61.1171L84.1387 59.6825L83.157 60.7396ZM80.2877 62.4763C80.2122 62.4763 79.5327 63.4579 78.8531 64.5905C75.6817 69.4986 73.2655 75.4637 73.2655 78.182C73.2655 78.9371 73.4165 78.5595 73.945 76.4453C74.3226 74.9351 75.0022 72.8209 75.4552 71.7638C76.3613 69.4986 78.6266 65.1946 79.6837 63.6089C80.1367 63.0049 80.3632 62.4763 80.2877 62.4763ZM72.3594 76.8229C72.0573 78.333 72.4349 77.5024 73.341 74.7086C73.794 73.1985 74.2471 71.7638 74.3226 71.5373C74.3981 71.2352 74.3226 71.3863 74.0206 71.9148C73.492 72.8209 72.6614 75.3882 72.3594 76.8229ZM116.792 51.6031C115.961 50.999 115.357 49.9419 115.357 49.1113C115.357 47.6012 117.849 44.9584 120.567 43.5992C122.304 42.6931 123.059 42.7687 124.267 44.0523C125.777 45.638 125.853 45.8645 125.022 46.6196C121.851 49.5644 119.963 51.6031 119.51 52.2827C118.906 53.1888 118.529 53.4153 118 53.0378C117.773 52.9623 117.547 52.6602 117.547 52.5092C117.547 52.2827 117.245 51.9051 116.792 51.6031ZM120.567 47.2991L119.284 48.5828C118.604 49.3379 118.075 50.093 118.075 50.244C118.075 50.546 118.075 50.546 119.51 48.6583L120.567 47.2991ZM118.075 48.8848C117.396 49.5644 117.094 50.1685 117.396 50.1685C117.471 50.1685 117.773 49.6399 118.151 49.1113L118.831 48.0542L118.075 48.8848ZM127.212 58.3233C127.363 58.6254 126.985 58.7009 124.645 58.7009C120.869 58.7009 120.039 58.8519 120.039 59.6825C120.039 62.1743 116.943 72.6699 113.998 80.2962C111.28 87.394 106.523 96.2285 102.521 101.514C100.558 104.232 97.1597 107.479 95.272 108.536C92.9312 109.971 90.8925 110.5 87.8722 110.575C86.4375 110.651 85.0029 110.651 84.7008 110.5C83.6437 110.122 82.5866 109.593 82.058 108.989C81.8315 108.687 81.2275 108.234 80.6989 107.932C79.7173 107.404 78.5092 105.894 78.5092 105.214C78.5092 104.383 78.9622 103.779 79.7173 103.779C80.5479 103.779 81.0764 104.308 80.6234 104.761C80.3969 105.063 80.4724 105.063 80.8499 104.836C81.2275 104.61 81.454 104.61 81.6805 104.836C82.1336 105.289 85.0784 104.61 87.4946 103.477C95.574 99.6263 101.539 90.4898 110.6 67.8374C111.884 64.7415 112.865 62.2498 112.865 62.1743C112.865 62.0988 112.488 62.0232 112.11 62.0232C111.431 62.0232 111.204 61.7967 111.355 61.1927C111.355 60.8906 110.751 60.2866 110.374 60.2866C110.072 60.2866 109.619 59.456 109.619 58.8519C109.619 58.0968 111.355 57.1907 113.62 56.6622C114.602 56.4356 115.584 56.1336 115.735 56.0581C116.037 55.8316 123.437 56.2091 124.796 56.5867C125.777 56.8887 126.759 57.5683 127.212 58.3233ZM112.79 69.4986C112.639 69.423 111.884 71.3108 111.884 71.6128C111.884 71.6883 112.11 71.3108 112.412 70.7067C112.639 70.1026 112.79 69.5741 112.79 69.4986ZM105.768 85.5818C103.88 89.3572 104.031 89.6592 105.919 85.9593C107.504 82.8635 112.035 72.2169 111.808 71.9903C111.733 71.9903 110.676 74.4066 109.392 77.4269C108.108 80.4472 106.447 84.0716 105.768 85.5818ZM103.804 89.4327C103.578 89.8858 103.502 90.1878 103.578 90.1878C103.653 90.1878 103.88 89.8858 104.106 89.4327C104.257 89.0552 104.408 88.6776 104.333 88.6776C104.257 88.6776 104.031 89.0552 103.804 89.4327ZM101.313 97.5876C104.711 92.7551 106.523 89.5837 109.09 83.9206C109.921 82.0329 110.6 80.4472 110.6 80.3717C110.6 80.2207 109.619 82.1084 108.486 84.5247C106.296 89.1307 102.898 94.9448 100.482 98.3427C99.6515 99.4753 99.3494 100.079 99.727 99.6263C100.18 99.0978 100.86 98.1917 101.313 97.5876ZM112.261 82.0329C112.714 80.9003 113.092 79.9187 113.016 79.9187C112.941 79.8432 112.412 81.0513 111.733 82.5615C111.053 84.1471 110.072 86.3369 109.468 87.545C108.863 88.7531 108.41 89.8103 108.41 89.8858C108.486 90.1878 111.204 84.4492 112.261 82.0329ZM111.808 74.9351C113.469 70.5557 116.867 60.7396 116.716 60.5886C116.716 60.5886 116.188 61.7967 115.735 63.3069C111.884 74.5576 106.825 86.0349 102.37 93.4347C101.237 95.3224 100.331 96.908 100.407 96.908C100.407 96.908 101.162 95.9264 101.917 94.7183C105.39 89.5837 108.486 83.3166 111.808 74.9351ZM120.015 80.5983C119.713 79.8432 119.335 78.635 119.26 77.88C118.731 71.9903 126.584 57.5683 132.851 52.9623C135.343 51.1501 138.288 50.1685 140.402 50.4705C141.308 50.6215 141.837 50.9235 143.045 52.1317C143.876 52.8868 144.857 53.6418 145.159 53.7173C145.461 53.7929 145.688 53.9439 145.688 54.0949C145.688 54.699 146.141 54.2459 146.896 53.1133C147.651 51.8296 148.406 51.4521 149.388 51.7541C149.916 51.9051 149.992 52.3582 149.614 53.1888C149.312 53.7173 149.312 53.7173 149.841 53.2643C150.294 52.8112 150.369 52.8112 150.369 53.1888C150.369 53.4153 150.52 53.4908 150.747 53.4153C150.973 53.3398 151.2 53.4908 151.275 53.7173C151.351 53.9439 151.502 54.0194 151.577 53.9439C151.729 53.8684 152.182 54.1704 152.71 54.6234C153.465 55.303 153.541 55.5295 153.541 56.5867C153.541 58.1723 152.71 61.1171 150.52 66.6292C149.539 69.1965 148.331 72.3679 147.953 73.727C147.198 76.2188 146.594 78.8616 146.82 79.0126C147.047 79.3146 150.369 76.5208 152.861 73.9535C155.428 71.3108 157.769 68.2904 162.451 61.8722C163.281 60.7396 164.036 59.758 164.112 59.8335C164.187 59.909 163.885 60.5886 163.357 61.2682C162.904 61.9477 162.451 62.5518 162.451 62.7028C162.451 62.7783 162.979 62.1743 163.508 61.4192C165.244 59.0029 164.867 60.2866 162.979 63.4579C155.428 75.8412 151.351 81.3533 148.406 83.3166C147.274 84.0716 144.706 83.6941 144.329 82.7125C144.253 82.486 143.725 82.1084 143.121 81.8064C141.082 80.8248 139.647 78.1065 139.27 74.7086L139.119 72.8209L137.911 74.6331C136.174 77.1249 132.247 82.1084 130.888 83.6186C128.019 86.5634 126.811 86.8654 124.923 85.1288C124.244 84.5247 123.488 83.9961 123.186 83.9961C122.507 83.9961 120.77 82.1839 120.015 80.5983ZM160.789 65.2701C160.563 65.2701 160.563 65.3456 160.638 65.4966C160.865 65.8742 161.318 65.4211 161.394 64.666C161.469 64.364 161.469 64.213 161.318 64.2885C161.243 64.364 161.167 64.666 161.092 64.8926C161.092 65.1191 160.941 65.3456 160.789 65.2701ZM159.732 67.3843C159.43 67.6109 159.279 67.7619 159.279 67.8374C159.279 68.0639 159.43 67.9129 159.808 67.5353C160.11 67.0823 160.11 67.0823 159.732 67.3843ZM158.675 68.1394C158.6 68.2904 158.675 68.3659 158.902 68.3659C159.128 68.3659 159.279 68.2904 159.279 68.2904C159.279 68.0639 158.751 67.9884 158.675 68.1394ZM156.259 71.5373C155.881 71.9903 156.637 71.8393 157.09 71.4618C157.618 71.0087 158.298 69.7251 158.071 69.5741C157.92 69.4986 157.694 69.5741 157.467 69.8761C157.241 70.1781 157.241 70.2536 157.467 70.0271C157.769 69.8761 157.845 69.9516 157.769 70.1781C157.694 70.4047 157.467 70.5557 157.316 70.5557C157.165 70.5557 157.014 70.6312 156.863 70.7822C156.788 70.8577 156.788 70.9332 157.014 70.7822C157.241 70.6312 157.316 70.7067 157.241 70.9332C157.165 71.0842 157.014 71.3108 156.863 71.3108C156.712 71.3108 156.41 71.3863 156.259 71.5373ZM155.73 72.5189C155.881 72.4434 156.032 72.4434 156.032 72.5944C156.032 72.6699 155.881 72.8964 155.73 73.123C155.504 73.3495 155.504 73.425 155.73 73.274C155.881 73.1985 156.183 72.8964 156.259 72.6699C156.486 72.2924 156.486 72.2169 156.183 72.2169C155.957 72.2924 155.73 72.3679 155.655 72.5189C155.504 72.5944 155.579 72.6699 155.73 72.5189ZM154.673 73.6515C154.447 73.878 154.296 74.1046 154.371 74.1046C154.447 74.1046 154.673 73.878 154.9 73.6515C155.202 73.3495 155.353 73.123 155.277 73.123C155.202 73.123 154.9 73.3495 154.673 73.6515ZM153.541 75.0862C153.239 75.2372 153.088 75.4637 153.088 75.5392C153.088 75.6902 153.314 75.6147 153.616 75.1617C153.918 74.7841 153.918 74.7841 153.541 75.0862ZM127.49 77.5779L127.641 76.7473L127.264 77.4269C127.113 77.88 126.886 78.7106 126.811 79.3146L126.66 80.4472L126.962 79.3901C127.188 78.8616 127.339 78.031 127.49 77.5779ZM137.08 73.1985C137.382 72.8209 137.306 72.8209 136.929 73.123C136.702 73.274 136.551 73.5005 136.551 73.5005C136.551 73.727 136.702 73.576 137.08 73.1985ZM137.759 72.2169C138.062 71.8393 138.062 71.7638 137.684 72.1413C137.457 72.2924 137.231 72.5189 137.231 72.5189C137.231 72.7454 137.457 72.5944 137.759 72.2169ZM151.88 59.3805C151.2 60.8151 147.349 70.7822 146.896 72.2924C146.065 75.2372 146.367 74.7086 147.727 70.7822C148.482 68.7435 149.69 65.5721 150.445 63.7599C151.653 60.8151 152.635 57.8703 151.88 59.3805ZM149.992 58.3233C149.539 58.3233 144.857 69.7251 144.933 70.6312C144.933 70.7822 145.008 70.6312 146.141 67.6864C146.594 66.5537 147.5 64.4395 148.104 63.0804C149.463 59.9845 150.143 58.3233 149.992 58.3233ZM146.594 62.5518C145.386 63.9865 143.423 70.0271 143.045 72.9719C142.97 73.878 143.121 73.5005 143.649 71.5373C144.027 70.0271 145.008 67.2333 145.763 65.3456C146.745 62.8538 146.971 62.0988 146.594 62.5518ZM144.329 65.9497C144.48 65.6476 144.48 65.6476 144.102 65.9497C143.649 66.2517 142.819 68.7435 142.592 70.2536C142.517 70.8577 142.819 70.1781 143.272 68.7435C143.725 67.3843 144.178 66.1007 144.329 65.9497ZM141.233 58.9274C137.684 61.2682 133.682 66.4027 130.964 71.9903C129.529 75.0107 128.019 79.0881 128.321 79.0881C128.472 79.0881 129.076 78.5595 129.756 77.9555C132.927 75.0862 140.478 65.0436 142.592 60.8906C143.876 58.3233 144.027 57.3417 143.272 57.6438C143.045 57.7193 142.139 58.3233 141.233 58.9274ZM133.078 60.7396C131.568 62.4008 129.378 65.7987 127.641 69.121C126.207 71.9903 124.621 76.2943 124.697 77.4269C124.697 77.729 125.074 76.8229 125.527 75.4637C125.98 74.1046 126.735 72.0658 127.264 70.9332C128.547 67.7619 130.36 64.7415 133.002 61.1171L134.06 59.6825L133.078 60.7396ZM130.209 62.4763C130.133 62.4763 129.454 63.4579 128.774 64.5905C125.603 69.4986 123.186 75.4637 123.186 78.182C123.186 78.9371 123.337 78.5595 123.866 76.4453C124.244 74.9351 124.923 72.8209 125.376 71.7638C126.282 69.4986 128.547 65.1946 129.605 63.6089C130.058 63.0049 130.284 62.4763 130.209 62.4763ZM122.28 76.8229C121.978 78.333 122.356 77.5024 123.262 74.7086C123.715 73.1985 124.168 71.7638 124.244 71.5373C124.319 71.2352 124.244 71.3863 123.941 71.9148C123.413 72.8209 122.582 75.3882 122.28 76.8229ZM168.072 50.093C168.902 49.4889 170.186 50.0174 170.035 50.9235C169.884 51.3766 169.96 51.5276 170.186 51.3766C170.488 51.3011 170.488 51.4521 170.337 51.9051C169.96 52.8112 170.035 52.9623 170.488 52.2827C170.866 51.7541 170.941 51.7541 171.168 52.0562C171.319 52.2827 171.696 52.5847 171.998 52.7357C172.3 52.8868 172.527 53.1888 172.527 53.3398C172.527 53.5663 172.678 53.7173 172.753 53.7173C173.282 53.7173 173.055 55.3785 172.3 57.1907C171.923 58.0968 171.621 58.9274 171.696 58.9274C171.696 58.9274 172.225 58.5499 172.678 58.0213C175.019 55.9071 176.982 55.0765 179.021 55.303C181.437 55.605 188.384 59.909 188.082 60.9661C188.006 61.1171 187.478 61.4192 186.873 61.5702C185.816 61.9477 185.665 61.8722 184.155 61.2682C181.965 60.4376 181.21 60.2866 180.078 60.6641C178.568 61.0416 176.982 62.1743 174.566 64.666C170.715 68.517 167.015 73.576 163.541 79.4656C162.031 82.1084 159.69 86.6389 159.69 87.0165C159.69 87.1675 159.464 87.4695 159.162 87.696C158.86 87.9981 158.709 88.0736 158.709 87.847C158.709 87.6205 158.633 87.6205 158.331 87.847C158.105 87.9981 157.954 87.9981 157.652 87.6205C157.425 87.394 157.199 87.0165 157.199 86.7899C157.199 86.4124 156.746 86.1104 155.84 86.1104C155.009 86.1104 154.027 84.5247 154.027 83.1655C154.027 79.3146 156.142 73.0474 160.823 62.4763C162.786 58.1723 167.09 50.848 168.072 50.093ZM172.074 63.4579C171.394 64.1375 171.168 64.364 171.394 64.364C171.394 64.364 171.772 63.9865 172.225 63.5334L172.904 62.7783L172.074 63.4579ZM157.803 78.031C159.766 71.9148 164.296 61.6457 167.996 55.152C168.6 54.0949 169.054 53.1133 168.978 53.0378C168.676 52.7357 162.56 64.8926 160.446 70.0271C158.482 74.7841 156.595 80.2962 156.972 80.0697C157.123 79.9942 157.501 79.0881 157.803 78.031ZM159.615 75.3127C159.917 74.6331 161.05 72.0658 162.031 69.5741C163.088 67.0068 165.203 62.4763 166.788 59.456C168.298 56.4356 169.431 54.0194 169.28 54.0194C168.978 54.1704 164.825 62.0988 162.937 66.4027C160.748 71.3863 158.558 76.8229 158.935 76.5963C159.011 76.5963 159.313 75.9923 159.615 75.3127ZM166.335 71.0087L166.864 70.1781L166.26 70.9332C165.882 71.3108 165.656 71.7638 165.656 71.9148C165.656 72.1413 165.656 72.1413 166.335 71.0087ZM168.827 67.6864C169.507 66.7803 169.733 66.4027 169.28 66.8558C168.449 67.8374 166.486 70.4802 167.166 69.8006C167.317 69.5741 168.072 68.668 168.827 67.6864ZM170.866 65.1946C171.168 64.7415 171.168 64.7415 170.715 65.0436C170.488 65.2701 170.337 65.4211 170.337 65.4966C170.337 65.7231 170.488 65.5721 170.866 65.1946ZM170.186 59.0029C169.658 60.1355 169.129 61.1927 169.054 61.4947C168.902 61.7212 168.902 61.8722 168.978 61.8722C169.054 61.8722 169.582 60.8151 170.262 59.5315C170.866 58.2478 171.319 57.1152 171.243 57.0397C171.168 56.9642 170.715 57.8703 170.186 59.0029ZM167.09 61.2682C168.827 57.5683 170.186 54.85 169.96 55.0765C169.431 55.8316 165.354 63.8354 163.768 67.3843C162.333 70.6312 161.88 71.9903 163.164 69.423C163.541 68.5925 165.278 64.9681 167.09 61.2682Z" fill="#D10B3B"/>
<path d="M10.7222 68.4782C8.68344 67.9497 7.24879 67.0436 5.21007 65.0804C2.11423 62.06 1.28364 59.1907 2.34075 55.4153C4.45498 48.393 13.4405 39.4076 25.0687 32.8384C32.6195 28.5344 41.5295 25.363 50.7415 23.6264C53.3088 23.0978 55.272 22.9468 58.5944 22.7958C62.6718 22.7203 63.2759 22.7203 65.0126 23.2488C66.1452 23.5509 67.5798 24.1549 68.3349 24.608C69.6186 25.4386 71.0532 27.4018 71.0532 28.1569C71.0532 28.3834 71.5063 29.2895 72.0348 30.0446C73.696 32.6873 74.2246 34.9526 73.696 37.4444C72.4879 43.4095 65.3146 51.7154 54.5169 59.7193L51.5721 61.8335L53.8373 61.9845C57.6883 62.3621 59.727 63.1927 60.7841 65.0049C61.0861 65.6089 61.6902 66.515 62.2188 67.1191C64.937 70.3659 64.786 73.5373 61.9167 77.7657C60.5576 79.8045 56.7067 83.7309 53.9129 85.9961C46.6641 91.8103 36.2439 96.9448 27.183 99.1346C23.5586 99.9651 18.1975 100.192 15.7057 99.5121C12.1568 98.5305 10.4201 97.3224 7.92836 94.0755C5.73862 91.2817 4.75702 89.545 5.13456 88.941C5.5121 88.3369 6.79574 88.1859 6.64472 88.7144C6.56921 88.941 6.56921 89.092 6.72023 89.092C6.87125 89.092 6.87125 89.243 6.79574 89.3185C6.72023 89.4695 6.87125 89.545 7.09777 89.394C7.47531 89.3185 7.47531 89.394 7.3998 89.9981C7.17328 91.0552 7.77734 91.5837 10.3446 92.4143C15.0261 94 20.8403 93.3204 28.9196 90.1491C35.1113 87.7328 42.7376 83.2023 48.6273 78.5208C52.8557 75.1985 58.5189 69.0068 57.9148 68.4782C57.7638 68.3272 55.725 68.2517 53.3843 68.2517C49.6089 68.2517 48.5518 68.4027 45.8335 68.9313C40.9254 69.9884 38.2827 70.97 34.1297 73.1597C31.0339 74.8209 30.2788 75.274 29.9768 75.878C29.6747 76.7086 28.2401 82.3717 27.4095 86.2982C26.6544 89.847 26.1258 90.6776 24.9177 90.3001C24.3891 90.0736 24.2381 89.847 24.2381 89.394C24.2381 89.092 24.0871 88.8654 23.9361 88.941C23.8606 89.092 23.7096 88.941 23.7096 88.7899C23.7096 88.5634 23.483 88.4124 23.03 88.4879C21.6709 88.4879 20.9913 85.9961 20.9913 80.8616C20.9913 74.5189 23.4075 66.062 26.9564 59.8703C28.4666 57.303 31.7134 52.4705 33.2991 50.5073C38.0561 44.5421 41.6805 41.5218 44.1723 41.5218C45.0784 41.5218 45.2294 41.5973 45.4559 42.2014C45.607 42.5789 46.1355 43.183 46.5886 43.485C47.0416 43.787 47.3436 44.0891 47.2681 44.2401C47.1926 44.3911 47.2681 44.4666 47.4191 44.4666C47.9477 44.4666 47.5702 45.6748 46.7396 46.8074C44.1723 50.0542 42.4356 52.395 41.303 54.1317C39.8683 56.2459 37.301 60.3989 37.301 60.6254C37.301 61.1539 49.0803 52.093 53.5353 48.1665C56.7822 45.4482 61.7657 40.3892 63.5024 38.3505C65.2391 36.2362 67.3533 32.7629 67.3533 32.0833C67.3533 31.7812 66.9758 31.5547 65.9942 31.1772C63.9554 30.5731 56.0271 30.5731 52.1762 31.2527C37.6786 33.5934 23.7851 40.3137 13.818 49.8277C11.0997 52.395 9.43852 54.5847 8.15489 57.2275C7.24879 59.0397 7.09777 59.6438 7.02226 61.2294C6.87125 62.8906 6.94675 63.1927 7.3998 63.6457C8.07938 64.3253 10.9487 65.2314 15.1016 66.062C16.9138 66.4395 18.8015 66.8926 19.2546 67.0436L20.0852 67.4211L19.5566 67.7987C18.0465 68.8558 13.4405 69.2333 10.7222 68.4782ZM25.6728 74.8964C25.8238 74.4434 25.8238 74.0658 25.6728 74.0658C25.4463 74.0658 24.5402 78.0678 24.3136 79.9555C24.2381 80.8616 24.3891 80.4085 24.8422 78.5963C25.1442 77.0862 25.5218 75.425 25.6728 74.8964ZM26.4279 68.1762C26.4279 68.7048 27.0319 67.6476 28.0135 65.4579C29.3727 62.2866 32.6951 56.9255 36.6215 51.3379L37.5276 49.9787L36.697 50.9603C35.6399 52.1685 31.8645 57.6806 30.0523 60.8519C28.5421 63.3437 26.4279 67.6476 26.4279 68.1762ZM29.9768 63.8722C32.4685 59.0397 36.1684 53.4521 39.5663 49.2236C41.8315 46.5053 42.2091 45.8258 40.6989 47.4114C37.9051 50.4318 35.1868 54.0562 32.091 59.1152C30.4298 61.8335 27.938 66.5905 27.938 66.9681C27.938 67.4966 28.5421 66.5905 29.9768 63.8722ZM30.8829 64.6273C32.0155 62.5131 35.1868 57.303 37.5276 53.9807C39.9438 50.5073 40.9254 49.2991 43.4172 46.3543L44.7764 44.8442L43.3417 46.2033C40.6989 48.6951 37.8296 52.546 34.2052 58.2846C32.3175 61.2294 30.1278 65.1559 30.1278 65.5334C30.1278 65.911 30.4298 65.6089 30.8829 64.6273ZM34.8848 62.211C34.9603 62.211 35.6399 61.2294 36.3194 60.0213C37.0745 58.8887 38.2071 57.001 38.9622 55.8684C39.6418 54.7357 40.1704 53.8296 40.0193 53.9051C39.5663 54.2072 34.6583 62.211 34.8848 62.211ZM52.5537 82.3717C53.6863 81.5411 55.6495 79.8045 56.8577 78.5963C58.1413 77.3882 59.3494 75.878 59.6515 75.274C60.029 74.6699 60.1045 74.3679 59.878 74.6699C57.7638 77.2372 56.7067 78.2943 51.5721 82.9758C50.8925 83.5799 51.2701 83.3533 52.5537 82.3717ZM57.5372 78.8984C57.8393 78.5208 58.0658 78.2188 57.9903 78.2188C57.9148 78.2188 57.6128 78.5208 57.2352 78.8984C56.9332 79.2004 56.7067 79.5024 56.7822 79.5024C56.8577 79.5024 57.1597 79.2004 57.5372 78.8984ZM61.6902 76.029C61.1616 76.4821 58.8964 79.729 59.0474 79.729C59.1229 79.729 59.6515 79.1249 60.18 78.4453C61.3882 76.8596 62.2188 75.5005 61.6902 76.029ZM60.4821 71.8761C60.4821 71.6496 60.029 72.1781 59.425 72.9332C57.9903 75.0474 57.5372 75.576 54.7434 78.4453C53.0068 80.2575 52.6292 80.7106 53.5353 79.9555C54.2149 79.4269 55.6495 78.0678 56.7067 77.0107C58.5944 75.0474 60.4821 72.5557 60.4821 71.8761ZM59.727 71.1965C59.727 71.121 59.3494 71.5741 58.8209 72.3291C58.3678 73.0842 57.4617 74.2924 56.8577 74.9719C56.2536 75.727 55.8761 76.2556 55.9516 76.2556C56.0271 76.2556 56.6311 75.727 57.1597 75.0474C58.2923 73.7638 59.727 71.6496 59.727 71.1965ZM62.8983 40.6912C62.6718 40.9177 62.4453 41.0688 62.4453 41.1443C62.4453 41.3708 62.6718 41.2198 62.9738 40.8422C63.2759 40.3892 63.2759 40.3892 62.8983 40.6912ZM60.331 46.3543C58.8209 47.8645 57.6883 49.1481 57.7638 49.1481C57.9148 49.1481 59.3494 47.789 61.0106 46.1278C63.5779 43.5605 66.9003 39.7096 66.9003 39.1811C66.9003 39.1055 65.9942 40.0116 65.0126 41.2953C63.9554 42.5789 61.8412 44.8442 60.331 46.3543ZM52.1007 54.9623L51.4966 55.6418L52.1762 55.1888C52.4782 54.8868 52.7802 54.5847 52.8557 54.5092C52.8557 54.2072 52.7047 54.2827 52.1007 54.9623ZM46.211 61.0784C46.5131 60.6254 46.5131 60.6254 46.1355 60.9274C45.8335 61.1539 45.6825 61.3049 45.6825 61.3805C45.6825 61.607 45.909 61.456 46.211 61.0784ZM51.7231 57.0765C58.6699 51.8664 62.5963 48.3175 65.5411 44.6931C65.7676 44.3911 64.5595 45.5237 62.6718 47.2604C58.4433 51.3379 54.8189 54.4337 49.0803 58.7377C47.7212 59.7193 46.6641 60.5499 46.6641 60.6254C46.6641 60.7764 47.9477 59.8703 51.7231 57.0765ZM59.0474 52.1685C59.3494 51.7909 59.3494 51.7909 58.8964 52.093C58.6699 52.244 58.5189 52.4705 58.5189 52.4705C58.5189 52.697 58.6699 52.546 59.0474 52.1685ZM61.0106 50.4318C61.3127 50.0542 61.3127 50.0542 60.9351 50.3563C60.6331 50.5073 60.4821 50.7338 60.4821 50.8093C60.4821 50.9603 60.7086 50.8093 61.0106 50.4318ZM68.637 44.8442C69.1655 44.0136 68.5614 44.6931 66.2962 47.2604C65.0881 48.6196 63.5779 50.2052 62.9738 50.8093C61.9167 51.8664 61.9167 51.8664 62.8228 51.1869C63.3514 50.7338 64.333 49.9032 64.937 49.2236C65.9942 48.091 67.8819 45.8258 68.637 44.8442ZM68.3349 39.1055C68.8635 38.1239 68.4859 38.5015 67.1268 40.2382C65.3146 42.6544 61.0106 47.1849 57.0087 50.6583C51.9496 55.1888 51.7986 55.4908 56.5556 51.6399C61.1616 47.8645 66.9003 41.7483 68.3349 39.1055ZM21.6709 39.7096C21.2933 40.0871 21.1423 40.2382 21.3688 40.2382C21.3688 40.2382 21.5953 40.0871 21.7464 39.8606C22.0484 39.4076 22.0484 39.4076 21.6709 39.7096ZM20.6137 40.4647L19.7831 41.0688C15.1016 44.1646 8.38141 50.8093 7.02226 53.6786L6.72023 54.4337L7.09777 53.8296C7.3998 53.5276 8.07938 52.546 8.68344 51.7154C10.1181 49.7522 15.0261 44.9197 17.3669 43.1075C18.4995 42.2769 19.6321 41.3708 20.0097 41.0688L20.6137 40.4647ZM4.75702 54.7357C4.75702 54.8112 5.13456 54.2072 5.66311 53.3011C6.19167 52.395 6.94675 51.1869 7.3243 50.7338L8.00387 49.7522L7.3243 50.5073C6.56921 51.3379 4.75702 54.3582 4.75702 54.7357ZM5.13456 55.5663C4.98354 55.8684 5.36108 55.3398 5.96515 54.3582C6.4937 53.3766 7.3998 51.9419 7.92836 51.1869C8.53243 50.4318 9.96708 48.7706 11.0997 47.5625C12.3078 46.3543 12.9874 45.5237 12.6854 45.6748C12.0813 45.9768 9.28751 48.9971 7.77734 50.8848C6.64472 52.395 5.36108 54.5847 5.13456 55.5663ZM69.0941 82.5983C68.7921 81.8432 68.4146 80.635 68.339 79.88C67.8105 73.9903 75.6633 59.5683 81.9305 54.9623C84.4223 53.1501 87.3671 52.1685 89.4813 52.4705C90.3874 52.6215 90.916 52.9235 92.1241 54.1317C92.9547 54.8868 93.9363 55.6418 94.2384 55.7173C94.5404 55.7929 94.7669 55.9439 94.7669 56.0949C94.7669 56.699 95.22 56.2459 95.975 55.1133C96.7301 53.8296 97.4852 53.4521 98.4668 53.7541C98.9954 53.9051 99.0709 54.3582 98.6933 55.1888C98.3913 55.7173 98.3913 55.7173 98.9199 55.2643C99.3729 54.8112 99.4484 54.8112 99.4484 55.1888C99.4484 55.4153 99.5994 55.4908 99.826 55.4153C100.052 55.3398 100.279 55.4908 100.355 55.7173C100.43 55.9439 100.581 56.0194 100.657 55.9439C100.808 55.8684 101.261 56.1704 101.789 56.6234C102.544 57.303 102.62 57.5295 102.62 58.5867C102.62 60.1723 101.789 63.1171 99.5994 68.6292C98.6178 71.1965 97.4097 74.3679 97.0322 75.727C96.2771 78.2188 95.673 80.8616 95.8995 81.0126C96.1261 81.3146 99.4484 78.5208 101.94 75.9535C104.507 73.3108 106.848 70.2904 111.53 63.8722C112.36 62.7396 113.115 61.758 113.191 61.8335C113.266 61.909 112.964 62.5886 112.436 63.2682C111.983 63.9477 111.53 64.5518 111.53 64.7028C111.53 64.7783 112.058 64.1743 112.587 63.4192C114.324 61.0029 113.946 62.2866 112.058 65.4579C104.507 77.8412 100.43 83.3533 97.4852 85.3166C96.3526 86.0716 93.7853 85.6941 93.4078 84.7125C93.3323 84.486 92.8037 84.1084 92.1996 83.8064C90.1609 82.8248 88.7263 80.1065 88.3487 76.7086L88.1977 74.8209L86.9896 76.6331C85.2529 79.1249 81.3265 84.1084 79.9673 85.6186C77.098 88.5634 75.8899 88.8654 74.0022 87.1288C73.3226 86.5247 72.5675 85.9961 72.2655 85.9961C71.5859 85.9961 69.8492 84.1839 69.0941 82.5983ZM109.869 67.2701C109.642 67.2701 109.642 67.3456 109.718 67.4966C109.944 67.8742 110.397 67.4211 110.473 66.666C110.548 66.364 110.548 66.213 110.397 66.2885C110.322 66.364 110.246 66.666 110.171 66.8926C110.171 67.1191 110.02 67.3456 109.869 67.2701ZM108.811 69.3843C108.509 69.6109 108.358 69.7619 108.358 69.8374C108.358 70.0639 108.509 69.9129 108.887 69.5353C109.189 69.0823 109.189 69.0823 108.811 69.3843ZM107.754 70.1394C107.679 70.2904 107.754 70.3659 107.981 70.3659C108.207 70.3659 108.358 70.2904 108.358 70.2904C108.358 70.0639 107.83 69.9884 107.754 70.1394ZM105.338 73.5373C104.961 73.9903 105.716 73.8393 106.169 73.4618C106.697 73.0087 107.377 71.7251 107.15 71.5741C106.999 71.4986 106.773 71.5741 106.546 71.8761C106.32 72.1781 106.32 72.2536 106.546 72.0271C106.848 71.8761 106.924 71.9516 106.848 72.1781C106.773 72.4047 106.546 72.5557 106.395 72.5557C106.244 72.5557 106.093 72.6312 105.942 72.7822C105.867 72.8577 105.867 72.9332 106.093 72.7822C106.32 72.6312 106.395 72.7067 106.32 72.9332C106.244 73.0842 106.093 73.3108 105.942 73.3108C105.791 73.3108 105.489 73.3863 105.338 73.5373ZM104.81 74.5189C104.961 74.4434 105.112 74.4434 105.112 74.5944C105.112 74.6699 104.961 74.8964 104.81 75.123C104.583 75.3495 104.583 75.425 104.81 75.274C104.961 75.1985 105.263 74.8964 105.338 74.6699C105.565 74.2924 105.565 74.2169 105.263 74.2169C105.036 74.2924 104.81 74.3679 104.734 74.5189C104.583 74.5944 104.658 74.6699 104.81 74.5189ZM103.752 75.6515C103.526 75.878 103.375 76.1046 103.45 76.1046C103.526 76.1046 103.752 75.878 103.979 75.6515C104.281 75.3495 104.432 75.123 104.356 75.123C104.281 75.123 103.979 75.3495 103.752 75.6515ZM102.62 77.0862C102.318 77.2372 102.167 77.4637 102.167 77.5392C102.167 77.6902 102.393 77.6147 102.695 77.1617C102.997 76.7841 102.997 76.7841 102.62 77.0862ZM76.5694 79.5779L76.7205 78.7473L76.3429 79.4269C76.1919 79.88 75.9654 80.7106 75.8899 81.3146L75.7388 82.4472L76.0409 81.3901C76.2674 80.8616 76.4184 80.031 76.5694 79.5779ZM86.159 75.1985C86.461 74.8209 86.3855 74.8209 86.008 75.123C85.7814 75.274 85.6304 75.5005 85.6304 75.5005C85.6304 75.727 85.7814 75.576 86.159 75.1985ZM86.8386 74.2169C87.1406 73.8393 87.1406 73.7638 86.763 74.1413C86.5365 74.2924 86.31 74.5189 86.31 74.5189C86.31 74.7454 86.5365 74.5944 86.8386 74.2169ZM100.959 61.3805C100.279 62.8151 96.4281 72.7822 95.975 74.2924C95.1445 77.2372 95.4465 76.7086 96.8056 72.7822C97.5607 70.7435 98.7689 67.5721 99.5239 65.7599C100.732 62.8151 101.714 59.8703 100.959 61.3805ZM99.0709 60.3233C98.6178 60.3233 93.9363 71.7251 94.0118 72.6312C94.0118 72.7822 94.0873 72.6312 95.22 69.6864C95.673 68.5537 96.5791 66.4395 97.1832 65.0804C98.5423 61.9845 99.2219 60.3233 99.0709 60.3233ZM95.673 64.5518C94.4649 65.9865 92.5017 72.0271 92.1241 74.9719C92.0486 75.878 92.1996 75.5005 92.7282 73.5373C93.1057 72.0271 94.0873 69.2333 94.8424 67.3456C95.824 64.8538 96.0506 64.0988 95.673 64.5518ZM93.4078 67.9497C93.5588 67.6476 93.5588 67.6476 93.1812 67.9497C92.7282 68.2517 91.8976 70.7435 91.6711 72.2536C91.5956 72.8577 91.8976 72.1781 92.3507 70.7435C92.8037 69.3843 93.2568 68.1007 93.4078 67.9497ZM90.3119 60.9274C86.763 63.2682 82.7611 68.4027 80.0428 73.9903C78.6082 77.0107 77.098 81.0881 77.4 81.0881C77.551 81.0881 78.1551 80.5595 78.8347 79.9555C82.006 77.0862 89.5568 67.0436 91.6711 62.8906C92.9547 60.3233 93.1057 59.3417 92.3507 59.6438C92.1241 59.7193 91.218 60.3233 90.3119 60.9274ZM82.157 62.7396C80.6469 64.4008 78.4571 67.7987 76.7205 71.121C75.2858 73.9903 73.7001 78.2943 73.7756 79.4269C73.7756 79.729 74.1532 78.8229 74.6062 77.4637C75.0593 76.1046 75.8144 74.0658 76.3429 72.9332C77.6266 69.7619 79.4388 66.7415 82.0815 63.1171L83.1387 61.6825L82.157 62.7396ZM79.2877 64.4763C79.2122 64.4763 78.5327 65.4579 77.8531 66.5905C74.6817 71.4986 72.2655 77.4637 72.2655 80.182C72.2655 80.9371 72.4165 80.5595 72.945 78.4453C73.3226 76.9351 74.0022 74.8209 74.4552 73.7638C75.3613 71.4986 77.6266 67.1946 78.6837 65.6089C79.1367 65.0049 79.3632 64.4763 79.2877 64.4763ZM71.3594 78.8229C71.0573 80.333 71.4349 79.5024 72.341 76.7086C72.794 75.1985 73.2471 73.7638 73.3226 73.5373C73.3981 73.2352 73.3226 73.3863 73.0206 73.9148C72.492 74.8209 71.6614 77.3882 71.3594 78.8229ZM115.792 53.6031C114.961 52.999 114.357 51.9419 114.357 51.1113C114.357 49.6012 116.849 46.9584 119.567 45.5992C121.304 44.6931 122.059 44.7687 123.267 46.0523C124.777 47.638 124.853 47.8645 124.022 48.6196C120.851 51.5644 118.963 53.6031 118.51 54.2827C117.906 55.1888 117.529 55.4153 117 55.0378C116.773 54.9623 116.547 54.6602 116.547 54.5092C116.547 54.2827 116.245 53.9051 115.792 53.6031ZM119.567 49.2991L118.284 50.5828C117.604 51.3379 117.075 52.093 117.075 52.244C117.075 52.546 117.075 52.546 118.51 50.6583L119.567 49.2991ZM117.075 50.8848C116.396 51.5644 116.094 52.1685 116.396 52.1685C116.471 52.1685 116.773 51.6399 117.151 51.1113L117.831 50.0542L117.075 50.8848ZM126.212 60.3233C126.363 60.6254 125.985 60.7009 123.645 60.7009C119.869 60.7009 119.039 60.8519 119.039 61.6825C119.039 64.1743 115.943 74.6699 112.998 82.2962C110.28 89.394 105.523 98.2285 101.521 103.514C99.5576 106.232 96.1597 109.479 94.272 110.536C91.9312 111.971 89.8925 112.5 86.8722 112.575C85.4375 112.651 84.0029 112.651 83.7008 112.5C82.6437 112.122 81.5866 111.593 81.058 110.989C80.8315 110.687 80.2275 110.234 79.6989 109.932C78.7173 109.404 77.5092 107.894 77.5092 107.214C77.5092 106.383 77.9622 105.779 78.7173 105.779C79.5479 105.779 80.0764 106.308 79.6234 106.761C79.3969 107.063 79.4724 107.063 79.8499 106.836C80.2275 106.61 80.454 106.61 80.6805 106.836C81.1336 107.289 84.0784 106.61 86.4946 105.477C94.574 101.626 100.539 92.4898 109.6 69.8374C110.884 66.7415 111.865 64.2498 111.865 64.1743C111.865 64.0988 111.488 64.0232 111.11 64.0232C110.431 64.0232 110.204 63.7967 110.355 63.1927C110.355 62.8906 109.751 62.2866 109.374 62.2866C109.072 62.2866 108.619 61.456 108.619 60.8519C108.619 60.0968 110.355 59.1907 112.62 58.6622C113.602 58.4356 114.584 58.1336 114.735 58.0581C115.037 57.8316 122.437 58.2091 123.796 58.5867C124.777 58.8887 125.759 59.5683 126.212 60.3233ZM111.79 71.4986C111.639 71.423 110.884 73.3108 110.884 73.6128C110.884 73.6883 111.11 73.3108 111.412 72.7067C111.639 72.1026 111.79 71.5741 111.79 71.4986ZM104.768 87.5818C102.88 91.3572 103.031 91.6592 104.919 87.9593C106.504 84.8635 111.035 74.2169 110.808 73.9903C110.733 73.9903 109.676 76.4066 108.392 79.4269C107.108 82.4472 105.447 86.0716 104.768 87.5818ZM102.804 91.4327C102.578 91.8858 102.502 92.1878 102.578 92.1878C102.653 92.1878 102.88 91.8858 103.106 91.4327C103.257 91.0552 103.408 90.6776 103.333 90.6776C103.257 90.6776 103.031 91.0552 102.804 91.4327ZM100.313 99.5876C103.711 94.7551 105.523 91.5837 108.09 85.9206C108.921 84.0329 109.6 82.4472 109.6 82.3717C109.6 82.2207 108.619 84.1084 107.486 86.5247C105.296 91.1307 101.898 96.9448 99.482 100.343C98.6515 101.475 98.3494 102.079 98.727 101.626C99.18 101.098 99.8596 100.192 100.313 99.5876ZM111.261 84.0329C111.714 82.9003 112.092 81.9187 112.016 81.9187C111.941 81.8432 111.412 83.0513 110.733 84.5615C110.053 86.1471 109.072 88.3369 108.468 89.545C107.863 90.7531 107.41 91.8103 107.41 91.8858C107.486 92.1878 110.204 86.4492 111.261 84.0329ZM110.808 76.9351C112.469 72.5557 115.867 62.7396 115.716 62.5886C115.716 62.5886 115.188 63.7967 114.735 65.3069C110.884 76.5576 105.825 88.0349 101.37 95.4347C100.237 97.3224 99.331 98.908 99.4065 98.908C99.4065 98.908 100.162 97.9264 100.917 96.7183C104.39 91.5837 107.486 85.3166 110.808 76.9351ZM119.015 82.5983C118.713 81.8432 118.335 80.635 118.26 79.88C117.731 73.9903 125.584 59.5683 131.851 54.9623C134.343 53.1501 137.288 52.1685 139.402 52.4705C140.308 52.6215 140.837 52.9235 142.045 54.1317C142.876 54.8868 143.857 55.6418 144.159 55.7173C144.461 55.7929 144.688 55.9439 144.688 56.0949C144.688 56.699 145.141 56.2459 145.896 55.1133C146.651 53.8296 147.406 53.4521 148.388 53.7541C148.916 53.9051 148.992 54.3582 148.614 55.1888C148.312 55.7173 148.312 55.7173 148.841 55.2643C149.294 54.8112 149.369 54.8112 149.369 55.1888C149.369 55.4153 149.52 55.4908 149.747 55.4153C149.973 55.3398 150.2 55.4908 150.275 55.7173C150.351 55.9439 150.502 56.0194 150.577 55.9439C150.729 55.8684 151.182 56.1704 151.71 56.6234C152.465 57.303 152.541 57.5295 152.541 58.5867C152.541 60.1723 151.71 63.1171 149.52 68.6292C148.539 71.1965 147.331 74.3679 146.953 75.727C146.198 78.2188 145.594 80.8616 145.82 81.0126C146.047 81.3146 149.369 78.5208 151.861 75.9535C154.428 73.3108 156.769 70.2904 161.451 63.8722C162.281 62.7396 163.036 61.758 163.112 61.8335C163.187 61.909 162.885 62.5886 162.357 63.2682C161.904 63.9477 161.451 64.5518 161.451 64.7028C161.451 64.7783 161.979 64.1743 162.508 63.4192C164.244 61.0029 163.867 62.2866 161.979 65.4579C154.428 77.8412 150.351 83.3533 147.406 85.3166C146.274 86.0716 143.706 85.6941 143.329 84.7125C143.253 84.486 142.725 84.1084 142.121 83.8064C140.082 82.8248 138.647 80.1065 138.27 76.7086L138.119 74.8209L136.911 76.6331C135.174 79.1249 131.247 84.1084 129.888 85.6186C127.019 88.5634 125.811 88.8654 123.923 87.1288C123.244 86.5247 122.488 85.9961 122.186 85.9961C121.507 85.9961 119.77 84.1839 119.015 82.5983ZM159.789 67.2701C159.563 67.2701 159.563 67.3456 159.638 67.4966C159.865 67.8742 160.318 67.4211 160.394 66.666C160.469 66.364 160.469 66.213 160.318 66.2885C160.243 66.364 160.167 66.666 160.092 66.8926C160.092 67.1191 159.941 67.3456 159.789 67.2701ZM158.732 69.3843C158.43 69.6109 158.279 69.7619 158.279 69.8374C158.279 70.0639 158.43 69.9129 158.808 69.5353C159.11 69.0823 159.11 69.0823 158.732 69.3843ZM157.675 70.1394C157.6 70.2904 157.675 70.3659 157.902 70.3659C158.128 70.3659 158.279 70.2904 158.279 70.2904C158.279 70.0639 157.751 69.9884 157.675 70.1394ZM155.259 73.5373C154.881 73.9903 155.637 73.8393 156.09 73.4618C156.618 73.0087 157.298 71.7251 157.071 71.5741C156.92 71.4986 156.694 71.5741 156.467 71.8761C156.241 72.1781 156.241 72.2536 156.467 72.0271C156.769 71.8761 156.845 71.9516 156.769 72.1781C156.694 72.4047 156.467 72.5557 156.316 72.5557C156.165 72.5557 156.014 72.6312 155.863 72.7822C155.788 72.8577 155.788 72.9332 156.014 72.7822C156.241 72.6312 156.316 72.7067 156.241 72.9332C156.165 73.0842 156.014 73.3108 155.863 73.3108C155.712 73.3108 155.41 73.3863 155.259 73.5373ZM154.73 74.5189C154.881 74.4434 155.032 74.4434 155.032 74.5944C155.032 74.6699 154.881 74.8964 154.73 75.123C154.504 75.3495 154.504 75.425 154.73 75.274C154.881 75.1985 155.183 74.8964 155.259 74.6699C155.486 74.2924 155.486 74.2169 155.183 74.2169C154.957 74.2924 154.73 74.3679 154.655 74.5189C154.504 74.5944 154.579 74.6699 154.73 74.5189ZM153.673 75.6515C153.447 75.878 153.296 76.1046 153.371 76.1046C153.447 76.1046 153.673 75.878 153.9 75.6515C154.202 75.3495 154.353 75.123 154.277 75.123C154.202 75.123 153.9 75.3495 153.673 75.6515ZM152.541 77.0862C152.239 77.2372 152.088 77.4637 152.088 77.5392C152.088 77.6902 152.314 77.6147 152.616 77.1617C152.918 76.7841 152.918 76.7841 152.541 77.0862ZM126.49 79.5779L126.641 78.7473L126.264 79.4269C126.113 79.88 125.886 80.7106 125.811 81.3146L125.66 82.4472L125.962 81.3901C126.188 80.8616 126.339 80.031 126.49 79.5779ZM136.08 75.1985C136.382 74.8209 136.306 74.8209 135.929 75.123C135.702 75.274 135.551 75.5005 135.551 75.5005C135.551 75.727 135.702 75.576 136.08 75.1985ZM136.759 74.2169C137.062 73.8393 137.062 73.7638 136.684 74.1413C136.457 74.2924 136.231 74.5189 136.231 74.5189C136.231 74.7454 136.457 74.5944 136.759 74.2169ZM150.88 61.3805C150.2 62.8151 146.349 72.7822 145.896 74.2924C145.065 77.2372 145.367 76.7086 146.727 72.7822C147.482 70.7435 148.69 67.5721 149.445 65.7599C150.653 62.8151 151.635 59.8703 150.88 61.3805ZM148.992 60.3233C148.539 60.3233 143.857 71.7251 143.933 72.6312C143.933 72.7822 144.008 72.6312 145.141 69.6864C145.594 68.5537 146.5 66.4395 147.104 65.0804C148.463 61.9845 149.143 60.3233 148.992 60.3233ZM145.594 64.5518C144.386 65.9865 142.423 72.0271 142.045 74.9719C141.97 75.878 142.121 75.5005 142.649 73.5373C143.027 72.0271 144.008 69.2333 144.763 67.3456C145.745 64.8538 145.971 64.0988 145.594 64.5518ZM143.329 67.9497C143.48 67.6476 143.48 67.6476 143.102 67.9497C142.649 68.2517 141.819 70.7435 141.592 72.2536C141.517 72.8577 141.819 72.1781 142.272 70.7435C142.725 69.3843 143.178 68.1007 143.329 67.9497ZM140.233 60.9274C136.684 63.2682 132.682 68.4027 129.964 73.9903C128.529 77.0107 127.019 81.0881 127.321 81.0881C127.472 81.0881 128.076 80.5595 128.756 79.9555C131.927 77.0862 139.478 67.0436 141.592 62.8906C142.876 60.3233 143.027 59.3417 142.272 59.6438C142.045 59.7193 141.139 60.3233 140.233 60.9274ZM132.078 62.7396C130.568 64.4008 128.378 67.7987 126.641 71.121C125.207 73.9903 123.621 78.2943 123.697 79.4269C123.697 79.729 124.074 78.8229 124.527 77.4637C124.98 76.1046 125.735 74.0658 126.264 72.9332C127.547 69.7619 129.36 66.7415 132.002 63.1171L133.06 61.6825L132.078 62.7396ZM129.209 64.4763C129.133 64.4763 128.454 65.4579 127.774 66.5905C124.603 71.4986 122.186 77.4637 122.186 80.182C122.186 80.9371 122.337 80.5595 122.866 78.4453C123.244 76.9351 123.923 74.8209 124.376 73.7638C125.282 71.4986 127.547 67.1946 128.605 65.6089C129.058 65.0049 129.284 64.4763 129.209 64.4763ZM121.28 78.8229C120.978 80.333 121.356 79.5024 122.262 76.7086C122.715 75.1985 123.168 73.7638 123.244 73.5373C123.319 73.2352 123.244 73.3863 122.941 73.9148C122.413 74.8209 121.582 77.3882 121.28 78.8229ZM167.072 52.093C167.902 51.4889 169.186 52.0174 169.035 52.9235C168.884 53.3766 168.96 53.5276 169.186 53.3766C169.488 53.3011 169.488 53.4521 169.337 53.9051C168.96 54.8112 169.035 54.9623 169.488 54.2827C169.866 53.7541 169.941 53.7541 170.168 54.0562C170.319 54.2827 170.696 54.5847 170.998 54.7357C171.3 54.8868 171.527 55.1888 171.527 55.3398C171.527 55.5663 171.678 55.7173 171.753 55.7173C172.282 55.7173 172.055 57.3785 171.3 59.1907C170.923 60.0968 170.621 60.9274 170.696 60.9274C170.696 60.9274 171.225 60.5499 171.678 60.0213C174.019 57.9071 175.982 57.0765 178.021 57.303C180.437 57.605 187.384 61.909 187.082 62.9661C187.006 63.1171 186.478 63.4192 185.873 63.5702C184.816 63.9477 184.665 63.8722 183.155 63.2682C180.965 62.4376 180.21 62.2866 179.078 62.6641C177.568 63.0416 175.982 64.1743 173.566 66.666C169.715 70.517 166.015 75.576 162.541 81.4656C161.031 84.1084 158.69 88.6389 158.69 89.0165C158.69 89.1675 158.464 89.4695 158.162 89.696C157.86 89.9981 157.709 90.0736 157.709 89.847C157.709 89.6205 157.633 89.6205 157.331 89.847C157.105 89.9981 156.954 89.9981 156.652 89.6205C156.425 89.394 156.199 89.0165 156.199 88.7899C156.199 88.4124 155.746 88.1104 154.84 88.1104C154.009 88.1104 153.027 86.5247 153.027 85.1655C153.027 81.3146 155.142 75.0474 159.823 64.4763C161.786 60.1723 166.09 52.848 167.072 52.093ZM171.074 65.4579C170.394 66.1375 170.168 66.364 170.394 66.364C170.394 66.364 170.772 65.9865 171.225 65.5334L171.904 64.7783L171.074 65.4579ZM156.803 80.031C158.766 73.9148 163.296 63.6457 166.996 57.152C167.6 56.0949 168.054 55.1133 167.978 55.0378C167.676 54.7357 161.56 66.8926 159.446 72.0271C157.482 76.7841 155.595 82.2962 155.972 82.0697C156.123 81.9942 156.501 81.0881 156.803 80.031ZM158.615 77.3127C158.917 76.6331 160.05 74.0658 161.031 71.5741C162.088 69.0068 164.203 64.4763 165.788 61.456C167.298 58.4356 168.431 56.0194 168.28 56.0194C167.978 56.1704 163.825 64.0988 161.937 68.4027C159.748 73.3863 157.558 78.8229 157.935 78.5963C158.011 78.5963 158.313 77.9923 158.615 77.3127ZM165.335 73.0087L165.864 72.1781L165.26 72.9332C164.882 73.3108 164.656 73.7638 164.656 73.9148C164.656 74.1413 164.656 74.1413 165.335 73.0087ZM167.827 69.6864C168.507 68.7803 168.733 68.4027 168.28 68.8558C167.449 69.8374 165.486 72.4802 166.166 71.8006C166.317 71.5741 167.072 70.668 167.827 69.6864ZM169.866 67.1946C170.168 66.7415 170.168 66.7415 169.715 67.0436C169.488 67.2701 169.337 67.4211 169.337 67.4966C169.337 67.7231 169.488 67.5721 169.866 67.1946ZM169.186 61.0029C168.658 62.1355 168.129 63.1927 168.054 63.4947C167.902 63.7212 167.902 63.8722 167.978 63.8722C168.054 63.8722 168.582 62.8151 169.262 61.5315C169.866 60.2478 170.319 59.1152 170.243 59.0397C170.168 58.9642 169.715 59.8703 169.186 61.0029ZM166.09 63.2682C167.827 59.5683 169.186 56.85 168.96 57.0765C168.431 57.8316 164.354 65.8354 162.768 69.3843C161.333 72.6312 160.88 73.9903 162.164 71.423C162.541 70.5925 164.278 66.9681 166.09 63.2682Z" fill="#D10B3B"/>
<path d="M81.5639 39L84.4176 15.8963H91.2536C92.4574 15.8963 93.4892 16.0199 94.3491 16.2672C95.2197 16.5036 95.9345 16.8476 96.4934 17.299C97.0523 17.7397 97.4661 18.2825 97.7348 18.9274C98.0035 19.5615 98.1379 20.2709 98.1379 21.0556C98.1379 21.7435 98.0358 22.3991 97.8316 23.0225C97.6381 23.6459 97.3425 24.221 96.9448 24.7476C96.5471 25.2743 96.0473 25.7419 95.4454 26.1503C94.8543 26.5587 94.161 26.8866 93.3656 27.1338C94.7522 27.4455 95.7948 27.9937 96.4934 28.7783C97.192 29.5522 97.5414 30.541 97.5414 31.7448C97.5414 32.8089 97.3479 33.787 96.961 34.6791C96.5848 35.5605 96.0366 36.3237 95.3165 36.9686C94.5963 37.6135 93.7149 38.1133 92.6723 38.468C91.6405 38.8227 90.4743 39 89.1737 39H81.5639ZM85.8847 28.4397L84.869 36.6139H89.4156C90.2647 36.6139 91.0117 36.501 91.6566 36.2753C92.3015 36.0496 92.8389 35.7271 93.2689 35.3079C93.6988 34.8887 94.0213 34.3836 94.2362 33.7924C94.4512 33.2012 94.5587 32.5348 94.5587 31.7932C94.5587 30.7721 94.2147 29.9606 93.5268 29.3587C92.8389 28.746 91.8017 28.4397 90.4152 28.4397H85.8847ZM86.1427 26.3115H89.867C90.7376 26.3115 91.4954 26.1987 92.1403 25.973C92.796 25.7365 93.3387 25.414 93.7687 25.0056C94.2094 24.5864 94.5372 24.0866 94.7522 23.5062C94.9671 22.9258 95.0746 22.2863 95.0746 21.5876C95.0746 20.4805 94.7414 19.6529 94.075 19.1047C93.4086 18.5458 92.3768 18.2664 90.9795 18.2664H87.1423L86.1427 26.3115ZM104.916 22.6678L103.691 33.0508C103.669 33.2657 103.648 33.47 103.626 33.6634C103.615 33.8569 103.61 34.045 103.61 34.2277C103.61 35.1091 103.771 35.7647 104.094 36.1947C104.427 36.6246 104.948 36.8396 105.658 36.8396C106.152 36.8396 106.657 36.7052 107.173 36.4365C107.7 36.1678 108.205 35.7862 108.689 35.2918C109.183 34.7974 109.64 34.2008 110.059 33.5022C110.478 32.8036 110.844 32.0243 111.155 31.1644L112.171 22.6678H115.025L113.058 39H111.639C111.306 39 111.048 38.9248 110.865 38.7743C110.682 38.6238 110.591 38.3927 110.591 38.081C110.591 38.0703 110.596 37.9735 110.607 37.7908C110.618 37.6081 110.629 37.4092 110.639 37.1943C110.661 36.9793 110.677 36.7805 110.688 36.5977C110.709 36.415 110.72 36.3183 110.72 36.3075L110.833 35.0016C109.962 36.3881 108.99 37.4415 107.915 38.1616C106.84 38.871 105.733 39.2257 104.593 39.2257C103.379 39.2257 102.433 38.8119 101.756 37.9843C101.09 37.1567 100.756 35.969 100.756 34.4212C100.756 34.2062 100.762 33.9859 100.772 33.7602C100.783 33.5344 100.805 33.298 100.837 33.0508L102.062 22.6678H104.916ZM118.713 35.9206C118.713 35.8561 118.713 35.7755 118.713 35.6787C118.724 35.5713 118.735 35.4208 118.746 35.2273C118.767 35.0338 118.794 34.7813 118.826 34.4696C118.858 34.1579 118.907 33.7494 118.971 33.2442L119.987 25.0701H118.165C118.025 25.0701 117.907 25.0325 117.81 24.9572C117.724 24.8712 117.681 24.7423 117.681 24.5703C117.681 24.538 117.687 24.4736 117.698 24.3768C117.708 24.2801 117.719 24.1726 117.73 24.0544C117.751 23.9254 117.767 23.7964 117.778 23.6674C117.8 23.5384 117.816 23.4148 117.827 23.2966L120.342 22.958L121.551 17.9117C121.594 17.7504 121.675 17.6215 121.793 17.5247C121.911 17.4172 122.056 17.3635 122.228 17.3635H123.744L123.034 22.9903H127.323L127.081 25.0701H122.776L121.793 33.0991C121.739 33.5398 121.696 33.8945 121.664 34.1632C121.642 34.4319 121.621 34.6469 121.599 34.8081C121.589 34.9694 121.578 35.0822 121.567 35.1467C121.567 35.2112 121.567 35.2596 121.567 35.2918C121.567 35.84 121.691 36.2484 121.938 36.5171C122.196 36.7751 122.545 36.9041 122.986 36.9041C123.265 36.9041 123.512 36.8664 123.727 36.7912C123.942 36.7052 124.125 36.6139 124.276 36.5171C124.437 36.4204 124.571 36.3344 124.679 36.2592C124.786 36.1732 124.883 36.1302 124.969 36.1302C125.055 36.1302 125.119 36.1517 125.162 36.1947C125.216 36.2377 125.27 36.3075 125.324 36.4043L125.92 37.7747C125.404 38.2369 124.808 38.6023 124.131 38.871C123.464 39.129 122.792 39.258 122.115 39.258C121.073 39.258 120.25 38.9731 119.648 38.4035C119.047 37.8338 118.735 37.0062 118.713 35.9206ZM128.509 22.6678H130.653C130.868 22.6678 131.04 22.7216 131.169 22.8291C131.309 22.9365 131.389 23.0816 131.411 23.2644L132.91 33.7763C132.964 34.1525 132.991 34.5179 132.991 34.8726C133.001 35.2166 133.012 35.5605 133.023 35.9045C133.152 35.5605 133.281 35.2166 133.41 34.8726C133.55 34.5179 133.695 34.1525 133.845 33.7763L138.311 23.1999C138.376 23.0386 138.478 22.9043 138.617 22.7968C138.768 22.6893 138.934 22.6356 139.117 22.6356H140.31C140.525 22.6356 140.692 22.6893 140.81 22.7968C140.928 22.9043 140.998 23.0386 141.02 23.1999L142.842 33.7763C142.906 34.1525 142.954 34.5179 142.987 34.8726C143.03 35.2273 143.067 35.582 143.099 35.9367C143.207 35.5928 143.309 35.2434 143.406 34.8887C143.513 34.5233 143.642 34.1525 143.793 33.7763L147.92 23.2644C147.985 23.0924 148.092 22.9527 148.243 22.8452C148.393 22.7269 148.565 22.6678 148.759 22.6678H150.822L143.97 39H141.794C141.546 39 141.39 38.8173 141.326 38.4518L139.343 27.3756C139.311 27.2036 139.284 27.0317 139.262 26.8597C139.241 26.677 139.219 26.4996 139.198 26.3277C139.144 26.5104 139.09 26.6877 139.037 26.8597C138.983 27.0317 138.918 27.209 138.843 27.3917L134.119 38.4518C133.969 38.8173 133.754 39 133.474 39H131.378L128.509 22.6678ZM163.251 39H161.768C161.392 39 161.134 38.9033 160.994 38.7098C160.865 38.5163 160.801 38.2799 160.801 38.0004L161.091 34.6953C160.704 35.3832 160.285 36.0066 159.833 36.5655C159.393 37.1244 158.92 37.6027 158.415 38.0004C157.92 38.3873 157.399 38.6883 156.851 38.9033C156.303 39.1182 155.733 39.2257 155.142 39.2257C154.497 39.2257 153.911 39.1021 153.384 38.8549C152.858 38.5969 152.406 38.2261 152.03 37.7424C151.665 37.248 151.38 36.6461 151.176 35.9367C150.971 35.2166 150.869 34.3943 150.869 33.47C150.869 32.5026 150.988 31.5621 151.224 30.6485C151.471 29.7241 151.815 28.8535 152.256 28.0366C152.707 27.2198 153.245 26.4728 153.868 25.7956C154.492 25.1077 155.185 24.5165 155.948 24.0221C156.722 23.5169 157.549 23.13 158.431 22.8613C159.312 22.5818 160.237 22.4421 161.204 22.4421C161.903 22.4421 162.58 22.5012 163.235 22.6195C163.902 22.7269 164.557 22.9204 165.202 23.1999L163.251 39ZM156.222 36.8396C156.749 36.8396 157.265 36.6783 157.77 36.3559C158.275 36.0227 158.753 35.5659 159.205 34.9855C159.656 34.4051 160.075 33.7172 160.462 32.9218C160.86 32.1157 161.209 31.2343 161.51 30.2777L162.203 24.667C161.967 24.6133 161.731 24.581 161.494 24.5703C161.268 24.5488 161.043 24.538 160.817 24.538C160.172 24.538 159.549 24.6455 158.947 24.8605C158.345 25.0647 157.781 25.3549 157.254 25.7311C156.727 26.1073 156.249 26.5587 155.819 27.0854C155.389 27.6013 155.018 28.171 154.706 28.7944C154.406 29.4178 154.169 30.0842 153.997 30.7936C153.825 31.4923 153.739 32.2124 153.739 32.954C153.739 35.5444 154.567 36.8396 156.222 36.8396ZM167.794 39L170.68 15.2514H173.502L170.616 39H167.794Z" fill="#111110"/>
</svg>
