<svg width="57" height="22" viewBox="0 0 57 22" fill="none" xmlns="http://www.w3.org/2000/svg">
<path d="M0 0V22H22V0H0ZM18.1176 16.5249C17.7195 17.6199 16.724 18.2172 15.629 18.2172H6.37104C5.27602 18.2172 4.38009 17.6199 3.88235 16.5249C3.48416 15.5294 3.68326 14.4344 4.47964 13.638L7.9638 10.1538C8.26244 9.8552 8.76018 9.8552 9.05882 10.1538C9.35747 10.4525 9.35747 10.9502 9.05882 11.2489L5.57466 14.8326C5.07692 15.3303 5.27602 15.8281 5.37557 16.0271C5.47511 16.1267 5.67421 16.724 6.37104 16.724H15.629C16.3258 16.724 16.6244 16.2262 16.6244 16.0271C16.724 15.8281 16.8235 15.3303 16.3258 14.8326L9.25792 8.56109C8.1629 7.66516 7.9638 6.17195 8.76018 5.07692C9.25792 4.28054 10.0543 3.88235 10.9502 3.88235C11.8462 3.88235 12.6425 4.28054 13.1403 5.07692L14.0362 6.47059C14.2353 6.86878 14.1357 7.36652 13.8371 7.56561C13.4389 7.76471 12.9412 7.66516 12.7421 7.36652L11.8462 5.97285C11.6471 5.67421 11.3484 5.47511 10.9502 5.47511C10.552 5.47511 10.2534 5.67421 10.0543 5.97285C9.75566 6.47059 9.8552 7.06787 10.2534 7.36652L17.4208 13.5385C18.2172 14.3348 18.5158 15.4299 18.1176 16.5249Z" fill="#D10B3B"/>
<path d="M52.3045 18.5904V13.1211H52.7083L56.0192 17.8709H55.8651V13.1211H56.3422V18.5904H55.9385L52.6128 13.8112H52.7817V18.5904H52.3045Z" fill="#D10B3B"/>
<path d="M48.3853 18.6767C48.0084 18.6767 47.656 18.6082 47.3281 18.4712C47.0002 18.3292 46.7115 18.1335 46.4618 17.8839C46.2171 17.6294 46.0238 17.3308 45.8819 16.9882C45.7448 16.6407 45.6763 16.2614 45.6763 15.8503C45.6763 15.4343 45.7448 15.055 45.8819 14.7124C46.0238 14.3698 46.2196 14.0737 46.4692 13.8241C46.7188 13.5696 47.0051 13.3738 47.3281 13.2368C47.656 13.0998 48.0084 13.0312 48.3853 13.0312C48.7572 13.0312 49.1072 13.0998 49.4351 13.2368C49.763 13.3738 50.0493 13.5696 50.294 13.8241C50.5436 14.0737 50.7394 14.3723 50.8813 14.7198C51.0233 15.0624 51.0942 15.4392 51.0942 15.8503C51.0942 16.2614 51.0233 16.6407 50.8813 16.9882C50.7394 17.3308 50.5436 17.6294 50.294 17.8839C50.0493 18.1335 49.763 18.3292 49.4351 18.4712C49.1072 18.6082 48.7572 18.6767 48.3853 18.6767ZM48.3853 18.2216C48.7132 18.2216 49.0142 18.1604 49.2883 18.038C49.5623 17.9157 49.7973 17.7444 49.993 17.5241C50.1937 17.3039 50.3479 17.0519 50.4555 16.768C50.5632 16.4792 50.617 16.1733 50.617 15.8503C50.617 15.5322 50.5632 15.2312 50.4555 14.9473C50.3479 14.6586 50.1937 14.4041 49.993 14.1838C49.7973 13.9636 49.5623 13.7923 49.2883 13.6699C49.0191 13.5427 48.7181 13.4791 48.3853 13.4791C48.0525 13.4791 47.749 13.5427 47.4749 13.6699C47.2058 13.7923 46.9708 13.9636 46.7702 14.1838C46.5744 14.4041 46.4227 14.6586 46.315 14.9473C46.2073 15.2312 46.1535 15.5322 46.1535 15.8503C46.1535 16.1733 46.2073 16.4792 46.315 16.768C46.4227 17.0519 46.5744 17.3039 46.7702 17.5241C46.9708 17.7444 47.2082 17.9157 47.4823 18.038C47.7564 18.1604 48.0574 18.2216 48.3853 18.2216Z" fill="#D10B3B"/>
<path d="M43.9882 18.5904V13.1211H44.4653V18.5904H43.9882Z" fill="#D10B3B"/>
<path d="M38.5754 18.5904V13.1211H39.0526V15.6098H42.1359V13.1211H42.6131V18.5904H42.1359V16.0503H39.0526V18.5904H38.5754Z" fill="#D10B3B"/>
<path d="M35.6346 18.6767C35.2871 18.6767 34.9739 18.6107 34.6949 18.4785C34.4208 18.3464 34.1908 18.1726 34.0048 17.9573C33.8237 17.7419 33.694 17.5095 33.6157 17.2599L34.0415 17.1057C34.1786 17.4777 34.3817 17.7615 34.6508 17.9573C34.9249 18.1531 35.2504 18.2509 35.6272 18.2509C35.8768 18.2509 36.0946 18.2093 36.2806 18.1261C36.4715 18.0429 36.6208 17.9255 36.7284 17.7738C36.8361 17.622 36.89 17.4434 36.89 17.2378C36.89 16.954 36.8092 16.7337 36.6477 16.5771C36.4911 16.4205 36.2855 16.3079 36.031 16.2394L35.0326 15.9458C34.6264 15.8283 34.3254 15.6399 34.1296 15.3805C33.9387 15.1162 33.8433 14.8176 33.8433 14.4848C33.8433 14.1961 33.9118 13.944 34.0489 13.7287C34.1908 13.5084 34.3817 13.3371 34.6215 13.2148C34.8613 13.0924 35.1329 13.0312 35.4364 13.0312C35.7545 13.0312 36.0384 13.0924 36.288 13.2148C36.5425 13.3322 36.7554 13.4889 36.9267 13.6846C37.1028 13.8755 37.2277 14.0884 37.3011 14.3233L36.8826 14.4775C36.7603 14.1398 36.5718 13.8853 36.3173 13.714C36.0628 13.5378 35.7716 13.4497 35.4437 13.4497C35.2284 13.4497 35.035 13.4913 34.8637 13.5745C34.6924 13.6577 34.5579 13.7752 34.46 13.9269C34.3621 14.0786 34.3131 14.2573 34.3131 14.4628C34.3131 14.7124 34.3841 14.9253 34.526 15.1015C34.668 15.2777 34.9053 15.4172 35.2382 15.52L36.1338 15.7843C36.5253 15.9017 36.8263 16.0828 37.0368 16.3275C37.2521 16.5673 37.3598 16.8634 37.3598 17.2158C37.3598 17.5046 37.2864 17.7591 37.1396 17.9793C36.9927 18.1947 36.7872 18.366 36.5229 18.4932C36.2635 18.6156 35.9674 18.6767 35.6346 18.6767Z" fill="#D10B3B"/>
<path d="M28.5681 18.5904L30.5797 13.1211H31.0715L33.0831 18.5904H32.5692L32.07 17.1955H29.5813L29.0747 18.5904H28.5681ZM29.7354 16.7551H31.9085L30.7338 13.4882H30.91L29.7354 16.7551Z" fill="#D10B3B"/>
<path d="M25.1903 18.5904V13.1211H28.5306V13.5616H25.6675V15.6245H28.2737V16.065H25.6675V18.5904H25.1903Z" fill="#D10B3B"/>
<path d="M52.9445 9.64125V4H54.1182V8.61901H56.5034V9.64125H52.9445Z" fill="#D10B3B"/>
<path d="M46.982 9.64125L48.8902 4H50.45L52.3582 9.64125H51.0785L50.6999 8.49028H48.6327L48.2541 9.64125H46.982ZM48.9583 7.46804H50.3743L49.5111 4.80265H49.8291L48.9583 7.46804Z" fill="#D10B3B"/>
<path d="M40.9456 9.64125L39.469 4H40.7411L41.8542 8.72502H41.5135L42.6872 4H43.8987L45.0724 8.72502H44.7317L45.8448 4H47.1169L45.6403 9.64125H44.2773L43.0961 5.09796H43.4898L42.3086 9.64125H40.9456Z" fill="#D10B3B"/>
<path d="M36.7222 9.64125V5.02224H35.291V4H39.3043V5.02224H37.8958V9.64125H36.7222Z" fill="#D10B3B"/>
<path d="M32.4694 9.73211C32.0252 9.73211 31.6289 9.63872 31.2806 9.45194C30.9322 9.26517 30.6571 9.01024 30.4552 8.68716C30.2583 8.35903 30.1599 7.988 30.1599 7.57405V4H31.3336V7.49833C31.3336 7.72045 31.3815 7.92237 31.4774 8.1041C31.5784 8.28079 31.7147 8.41961 31.8863 8.52057C32.058 8.62153 32.2523 8.67201 32.4694 8.67201C32.6915 8.67201 32.8859 8.62153 33.0524 8.52057C33.2241 8.41961 33.3579 8.28079 33.4538 8.1041C33.5547 7.92237 33.6052 7.72045 33.6052 7.49833V4H34.7789V7.57405C34.7789 7.988 34.6779 8.35903 34.476 8.68716C34.2791 9.01024 34.0065 9.26517 33.6582 9.45194C33.3099 9.63872 32.9136 9.73211 32.4694 9.73211Z" fill="#D10B3B"/>
<path d="M25 9.64125V4H27.3852C27.7739 4 28.1071 4.06563 28.3847 4.19688C28.6624 4.32813 28.8744 4.51743 29.0208 4.76479C29.1672 5.0071 29.2404 5.30241 29.2404 5.65073C29.2404 5.89808 29.1723 6.13535 29.036 6.36251C28.8997 6.58463 28.675 6.77141 28.362 6.92285V6.34737C28.6599 6.46347 28.8896 6.60229 29.0511 6.76383C29.2126 6.92537 29.3237 7.10206 29.3843 7.29388C29.4448 7.48066 29.4751 7.67754 29.4751 7.88451C29.4751 8.4398 29.2909 8.87141 28.9224 9.17935C28.5539 9.48728 28.0415 9.64125 27.3852 9.64125H25ZM26.1737 8.61901H27.5215C27.7588 8.61901 27.9481 8.55086 28.0894 8.41456C28.2308 8.27826 28.3015 8.10158 28.3015 7.88451C28.3015 7.66239 28.2308 7.48319 28.0894 7.34689C27.9481 7.21059 27.7588 7.14244 27.5215 7.14244H26.1737V8.61901ZM26.1737 6.1202H27.4685C27.6503 6.1202 27.7941 6.06972 27.9001 5.96876C28.0112 5.86275 28.0667 5.72393 28.0667 5.55229C28.0667 5.38065 28.0112 5.24436 27.9001 5.14339C27.7941 5.03738 27.6503 4.98438 27.4685 4.98438H26.1737V6.1202Z" fill="#D10B3B"/>
</svg>
